<!-- icon666.com - MILLIONS vector ICONS FREE --><svg id="Layer_1" enable-background="new 0 0 512 512" viewBox="0 0 512 512" xmlns="http://www.w3.org/2000/svg" xmlns:xlink="http://www.w3.org/1999/xlink"><radialGradient id="SVGID_1_" cx="227.645" cy="2983.579" gradientTransform="matrix(.707 .707 -.707 .707 2204.738 -2014.677)" gradientUnits="userSpaceOnUse" r="244.43"><stop offset="0" stop-color="#616580"></stop><stop offset=".2935" stop-color="#434659"></stop><stop offset=".5855" stop-color="#2a2c39"></stop><stop offset=".8309" stop-color="#1b1d26"></stop><stop offset="1" stop-color="#16171f"></stop></radialGradient><radialGradient id="SVGID_2_" cx="256.115975" cy="256.07225" gradientUnits="userSpaceOnUse" r="246.63415"><stop offset="0" stop-color="#8f95bd"></stop><stop offset=".6392" stop-color="#696d8b" stop-opacity=".361"></stop><stop offset="1" stop-color="#575a74" stop-opacity="0"></stop></radialGradient><linearGradient id="SVGID_3_" gradientTransform="matrix(.707 .707 -.707 .707 2204.738 -2014.677)" gradientUnits="userSpaceOnUse" x1="44.174" x2="408.159" y1="2800.106" y2="3164.09"><stop offset="0" stop-color="#ffe89e"></stop><stop offset="1" stop-color="#ff9003"></stop></linearGradient><linearGradient id="SVGID_4_" gradientTransform="matrix(.707 .707 -.707 .707 2204.738 -2014.677)" gradientUnits="userSpaceOnUse" x1="51.618" x2="403.213" y1="2807.54" y2="3159.135"><stop offset="0" stop-color="#ff9003"></stop><stop offset="1" stop-color="#ffe89e"></stop></linearGradient><linearGradient id="SVGID_5_" gradientUnits="userSpaceOnUse" x1="189.382" x2="366.399" y1="195.833" y2="372.85"><stop offset="0" stop-color="#111219"></stop><stop offset="1" stop-color="#111219" stop-opacity="0"></stop></linearGradient><linearGradient id="SVGID_6_" gradientUnits="userSpaceOnUse" x1="256.005" x2="256.005" y1="80.534" y2="429.176"><stop offset="0" stop-color="#ffe89e"></stop><stop offset=".5462" stop-color="#ff9003"></stop><stop offset="1" stop-color="#ffe89e"></stop></linearGradient><linearGradient id="SVGID_7_" gradientUnits="userSpaceOnUse" x1="256" x2="256" y1="87.62" y2="422.183"><stop offset="0" stop-color="#ff9003"></stop><stop offset=".5462" stop-color="#ffe89e"></stop><stop offset="1" stop-color="#ff9003"></stop></linearGradient><g><g><path d="m83.2 428.8c-95.5-95.5-95.4-250.2 0-345.7 95.4-95.4 250.2-95.5 345.7 0 95.4 95.4 95.4 250.2 0 345.7-95.5 95.5-250.3 95.5-345.7 0z" fill="url(#SVGID_1_)"></path><path d="m255.6 265.9c-5.6 0-10.2-4.6-10.2-10.2s4.6-10.2 10.2-10.2 10.2 4.6 10.2 10.2c.1 5.6-4.5 10.2-10.2 10.2zm32.6-10.3c0-5.7-4.6-10.3-10.3-10.3s-10.3 4.6-10.3 10.3 4.6 10.3 10.3 10.3 10.3-4.6 10.3-10.3zm-11 19.3c0-5.8-4.7-10.5-10.5-10.5s-10.5 4.7-10.5 10.5 4.7 10.5 10.5 10.5 10.5-4.7 10.5-10.5zm-22.3 0c0-5.7-4.6-10.3-10.3-10.3s-10.3 4.6-10.3 10.3 4.6 10.3 10.3 10.3c5.6 0 10.3-4.6 10.3-10.3zm-12-19.3c0-5.2-4.2-9.4-9.4-9.4s-9.4 4.2-9.4 9.4 4.2 9.5 9.4 9.5 9.4-4.2 9.4-9.5zm-7.8-19.2c0 5.2 4.2 9.5 9.4 9.5s9.4-4.2 9.4-9.5c0-5.2-4.2-9.4-9.4-9.4s-9.4 4.2-9.4 9.4zm22.2 0c0 5.2 4.2 9.5 9.5 9.5 5.2 0 9.5-4.3 9.5-9.5s-4.3-9.5-9.5-9.5c-5.3 0-9.5 4.3-9.5 9.5zm42.8 9.7c-5.3 0-9.6 4.3-9.6 9.6s4.3 9.6 9.6 9.6 9.6-4.3 9.6-9.6c-.1-5.3-4.4-9.6-9.6-9.6zm3.7 31.8c0-5.4-4.3-9.7-9.7-9.7s-9.7 4.3-9.7 9.7 4.3 9.7 9.7 9.7 9.7-4.4 9.7-9.7zm-25.9 25.9c5.4 0 9.7-4.3 9.7-9.7 0-5.3-4.3-9.7-9.7-9.7s-9.7 4.4-9.7 9.7c0 5.4 4.3 9.7 9.7 9.7zm-22.3 5.8c5.3 0 9.6-4.3 9.6-9.6s-4.3-9.6-9.6-9.6-9.6 4.3-9.6 9.6c.1 5.4 4.4 9.6 9.6 9.6zm-22.1-6.4c5 0 9.1-4.1 9.1-9.1s-4.1-9.1-9.1-9.1-9.1 4.1-9.1 9.1 4 9.1 9.1 9.1zm-7.7-25.3c0-4.8-3.9-8.6-8.6-8.6s-8.6 3.9-8.6 8.6 3.9 8.6 8.6 8.6 8.6-3.9 8.6-8.6zm-23.1-22.3c0 4.8 3.8 8.6 8.6 8.6s8.6-3.8 8.6-8.6c0-4.7-3.8-8.6-8.6-8.6s-8.6 3.9-8.6 8.6zm14.5-30.4c-4.5 0-8.2 3.7-8.2 8.2s3.7 8.2 8.2 8.2 8.2-3.7 8.2-8.2-3.7-8.2-8.2-8.2zm16.3-16.3c-4.6 0-8.2 3.7-8.2 8.2s3.7 8.2 8.2 8.2 8.2-3.7 8.2-8.2-3.7-8.2-8.2-8.2zm22.1-6.2c-4.7 0-8.6 3.9-8.6 8.6s3.8 8.6 8.6 8.6c4.7 0 8.6-3.9 8.6-8.6 0-4.8-3.8-8.6-8.6-8.6zm13.6 14.5c0 4.8 3.9 8.6 8.6 8.6 4.8 0 8.6-3.9 8.6-8.6 0-4.8-3.9-8.6-8.6-8.6s-8.6 3.8-8.6 8.6zm24.9 7.2c-5 0-9.1 4.1-9.1 9.1s4.1 9.1 9.1 9.1 9.1-4.1 9.1-9.1-4.1-9.1-9.1-9.1zm19.4 31.2c0 4.9 4 8.8 8.8 8.8 4.9 0 8.8-3.9 8.8-8.8 0-4.8-3.9-8.8-8.8-8.8s-8.8 4-8.8 8.8zm4.8 31.7c4.9 0 8.8-4 8.8-8.8s-4-8.9-8.8-8.9-8.9 4-8.9 8.9 4 8.8 8.9 8.8zm-11.6 20.4c5.1 0 9.2-4.1 9.2-9.2s-4.1-9.2-9.2-9.2-9.2 4.1-9.2 9.2 4.1 9.2 9.2 9.2zm-9.2 5.6c0-4.7-3.8-8.5-8.5-8.5s-8.5 3.8-8.5 8.5 3.8 8.5 8.5 8.5 8.5-3.8 8.5-8.5zm-21.4 8c0-4.9-4-8.9-8.8-8.9-4.9 0-8.8 4-8.8 8.9s4 8.8 8.8 8.8 8.8-4 8.8-8.8zm-23.2 0c0-4.9-3.9-8.8-8.8-8.8s-8.8 3.9-8.8 8.8 3.9 8.8 8.8 8.8c4.8 0 8.8-4 8.8-8.8zm-30.6.5c4.6 0 8.4-3.8 8.4-8.4s-3.8-8.4-8.4-8.4-8.4 3.8-8.4 8.4 3.8 8.4 8.4 8.4zm-17.7-15c4.6 0 8.4-3.7 8.4-8.4 0-4.6-3.7-8.3-8.4-8.3-4.6 0-8.4 3.7-8.4 8.3.1 4.7 3.8 8.4 8.4 8.4zm-11.6-20.6c4.3 0 7.8-3.5 7.8-7.8s-3.5-7.8-7.8-7.8-7.8 3.5-7.8 7.8c.1 4.3 3.6 7.8 7.8 7.8zm-11.7-30.6c0 4.3 3.5 7.7 7.7 7.7 4.3 0 7.7-3.4 7.7-7.7s-3.4-7.7-7.7-7.7c-4.2 0-7.7 3.5-7.7 7.7zm19.2-22.7c0-4.1-3.3-7.5-7.5-7.5-4.1 0-7.5 3.3-7.5 7.5 0 4.1 3.3 7.5 7.5 7.5 4.2-.1 7.5-3.4 7.5-7.5zm-3.6-20.1c0 4.3 3.4 7.7 7.7 7.7s7.7-3.4 7.7-7.7-3.5-7.7-7.7-7.7-7.7 3.5-7.7 7.7zm17.2-14.8c0 4.6 3.7 8.2 8.2 8.2s8.2-3.7 8.2-8.2-3.7-8.2-8.2-8.2c-4.5-.1-8.2 3.6-8.2 8.2zm22.3-8c0 4.3 3.4 7.7 7.7 7.7s7.7-3.4 7.7-7.7-3.4-7.7-7.7-7.7-7.7 3.5-7.7 7.7zm23.1 0c0 4.3 3.5 7.7 7.8 7.7s7.8-3.5 7.8-7.7c0-4.3-3.5-7.8-7.8-7.8-4.4.1-7.8 3.6-7.8 7.8zm29.5-.4c-4.6 0-8.3 3.8-8.3 8.4s3.7 8.4 8.3 8.4 8.4-3.8 8.4-8.4c-.1-4.7-3.8-8.4-8.4-8.4zm9.3 23.2c0 4.6 3.7 8.4 8.4 8.4 4.6 0 8.3-3.8 8.3-8.4s-3.7-8.3-8.3-8.3-8.4 3.7-8.4 8.3zm20 11.7c-4.7 0-8.4 3.7-8.4 8.4 0 4.6 3.8 8.4 8.4 8.4s8.4-3.8 8.4-8.4c0-4.7-3.8-8.4-8.4-8.4zm34.1 31.1c0-4.4-3.5-7.9-7.9-7.9s-7.9 3.6-7.9 7.9c0 4.4 3.5 7.9 7.9 7.9 4.4.1 7.9-3.5 7.9-7.9zm-10.9 31c4.4 0 7.9-3.5 7.9-7.9s-3.6-7.9-7.9-7.9c-4.4 0-7.9 3.5-7.9 7.9-.1 4.3 3.5 7.9 7.9 7.9zm-8.9 21.2c4.3 0 7.7-3.4 7.7-7.7s-3.4-7.7-7.7-7.7-7.7 3.4-7.7 7.7c0 4.2 3.4 7.7 7.7 7.7zm-14.1 18.6c4.4 0 8-3.6 8-8s-3.6-8-8-8-8 3.6-8 8c0 4.5 3.6 8 8 8zm-10.7 6.2c0-4.3-3.5-7.7-7.7-7.7-4.3 0-7.7 3.5-7.7 7.7 0 4.3 3.5 7.7 7.7 7.7s7.7-3.4 7.7-7.7zm-29.2 16.8c4.4 0 7.9-3.5 7.9-7.9s-3.5-7.9-7.9-7.9-7.9 3.5-7.9 7.9c0 4.3 3.6 7.9 7.9 7.9zm-23 3c4.4 0 7.9-3.5 7.9-7.9s-3.5-7.9-7.9-7.9-7.9 3.5-7.9 7.9 3.6 7.9 7.9 7.9zm-22.9-3.3c4.2 0 7.7-3.4 7.7-7.7 0-4.2-3.4-7.7-7.7-7.7-4.2 0-7.7 3.4-7.7 7.7s3.4 7.7 7.7 7.7zm-14.3-16.5c0-4-3.2-7.2-7.2-7.2s-7.2 3.2-7.2 7.2 3.2 7.2 7.2 7.2 7.2-3.2 7.2-7.2zm-18.4-14.1c0-4-3.2-7.2-7.2-7.2s-7.2 3.2-7.2 7.2 3.2 7.2 7.2 7.2c4-.1 7.2-3.3 7.2-7.2zm-21.3-10.8c4.2 0 7.6-3.4 7.6-7.6s-3.4-7.6-7.6-7.6-7.6 3.4-7.6 7.6c0 4.1 3.4 7.6 7.6 7.6zm-8.9-22.2c3.8 0 6.9-3.1 6.9-6.9s-3.1-6.9-6.9-6.9-6.9 3.1-6.9 6.9c.1 3.9 3.1 6.9 6.9 6.9zm-9.9-29.9c0 3.8 3.1 6.9 6.9 6.9s6.9-3.1 6.9-6.9-3.1-6.9-6.9-6.9-6.9 3.1-6.9 6.9zm3.2-22.9c0 3.7 3 6.7 6.7 6.7s6.7-3 6.7-6.7-3-6.7-6.7-6.7c-3.7-.1-6.7 2.9-6.7 6.7zm15.6-28.5c-3.9 0-7.1 3.2-7.1 7.1s3.2 7.1 7.1 7.1 7.1-3.2 7.1-7.1c0-4-3.2-7.1-7.1-7.1zm14.1-17.9c-3.6 0-6.5 2.9-6.5 6.5s2.9 6.5 6.5 6.5 6.5-2.9 6.5-6.5c.1-3.6-2.9-6.5-6.5-6.5zm18.4-14.6c-3.9 0-7.1 3.2-7.1 7.1s3.2 7.1 7.1 7.1 7.1-3.2 7.1-7.1c0-4-3.2-7.1-7.1-7.1zm21.5-8.6c-3.7 0-6.7 3-6.7 6.7s3 6.7 6.7 6.7 6.7-3 6.7-6.7-3-6.7-6.7-6.7zm22.9-3.2c-3.8 0-6.9 3.1-6.9 6.9s3.1 6.9 6.9 6.9 6.9-3.1 6.9-6.9-3-6.9-6.9-6.9zm23 3.1c-3.8 0-6.9 3.1-6.9 6.9s3.1 6.9 6.9 6.9 6.9-3.1 6.9-6.9c0-3.9-3-6.9-6.9-6.9zm21.5 8.1c-4.2 0-7.6 3.4-7.6 7.6s3.4 7.6 7.6 7.6 7.6-3.4 7.6-7.6-3.4-7.6-7.6-7.6zm11.2 21.7c0 4 3.2 7.2 7.2 7.2s7.2-3.2 7.2-7.2-3.2-7.2-7.2-7.2-7.2 3.3-7.2 7.2zm21.3 11.2c-4 0-7.2 3.2-7.2 7.2s3.2 7.2 7.2 7.2 7.2-3.2 7.2-7.2c0-3.9-3.2-7.2-7.2-7.2zm8.9 36.3c4.2 0 7.7-3.4 7.7-7.7 0-4.2-3.4-7.7-7.7-7.7-4.2 0-7.7 3.4-7.7 7.7s3.4 7.7 7.7 7.7zm32.3 15.3c0-3.9-3.2-7.1-7.1-7.1s-7.1 3.2-7.1 7.1c0 4 3.2 7.1 7.1 7.1 3.9.1 7.1-3.1 7.1-7.1zm-2.4 23.1c0-3.9-3.2-7.1-7.1-7.1s-7.1 3.2-7.1 7.1 3.2 7.1 7.1 7.1 7.1-3.1 7.1-7.1zm-7.3 22.1c0-3.9-3.1-7-7-7s-7 3.1-7 7 3.1 7 7 7 7-3.1 7-7zm-18.6 27.5c4.1 0 7.4-3.3 7.4-7.4s-3.3-7.4-7.4-7.4-7.4 3.3-7.4 7.4 3.3 7.4 7.4 7.4zm-8.2 9.9c0-4.1-3.3-7.4-7.4-7.4s-7.4 3.3-7.4 7.4 3.3 7.4 7.4 7.4c4.1-.1 7.4-3.4 7.4-7.4zm-26.1 21c4.1 0 7.4-3.3 7.4-7.4s-3.3-7.4-7.4-7.4-7.4 3.3-7.4 7.4 3.3 7.4 7.4 7.4zm-14.3 2.1c0-3.9-3.1-7-7-7s-7 3.1-7 7 3.1 7 7 7c3.9-.1 7-3.2 7-7zm-29.6 11.9c3.9 0 7.1-3.2 7.1-7.1s-3.2-7.1-7.1-7.1-7.1 3.2-7.1 7.1c-.1 3.9 3.1 7.1 7.1 7.1zm-23.3 0c3.9 0 7.1-3.2 7.1-7.1s-3.2-7.1-7.1-7.1-7.1 3.2-7.1 7.1 3.2 7.1 7.1 7.1zm-22.7-5.1c3.8 0 6.9-3.1 6.9-6.9s-3.1-6.9-6.9-6.9-6.9 3.1-6.9 6.9c0 3.9 3.1 6.9 6.9 6.9zm-21.2-9.1c4 0 7.2-3.2 7.2-7.2s-3.2-7.2-7.2-7.2-7.2 3.2-7.2 7.2 3.3 7.2 7.2 7.2zm-18.7-14.1c3.7 0 6.7-3 6.7-6.7s-3-6.7-6.7-6.7-6.7 3-6.7 6.7 3 6.7 6.7 6.7zm-9.1-24c0-3.6-2.9-6.5-6.5-6.5s-6.5 2.9-6.5 6.5 2.9 6.5 6.5 6.5 6.5-2.9 6.5-6.5zm-18.1-13.3c3.7 0 6.8-3 6.8-6.8 0-3.7-3-6.8-6.8-6.8-3.7 0-6.8 3-6.8 6.8s3.1 6.8 6.8 6.8zm-1-28.9c0-3.4-2.7-6.1-6.1-6.1s-6.1 2.7-6.1 6.1 2.7 6.1 6.1 6.1c3.3.1 6.1-2.7 6.1-6.1zm-14.7-23.1c0 3.4 2.7 6.1 6.1 6.1s6.1-2.7 6.1-6.1-2.7-6.1-6.1-6.1-6.1 2.8-6.1 6.1zm2.5-23c0 3.3 2.7 6 6 6s6-2.7 6-6-2.7-6-6-6-6 2.7-6 6zm13.2-15.7c3.5 0 6.4-2.8 6.4-6.4 0-3.5-2.9-6.4-6.4-6.4s-6.4 2.9-6.4 6.4 2.9 6.4 6.4 6.4zm5.7-26.5c0 3.3 2.7 5.9 5.9 5.9s5.9-2.7 5.9-5.9-2.7-5.9-5.9-5.9-5.9 2.6-5.9 5.9zm21.5-23.2c-3.3 0-5.9 2.7-5.9 5.9s2.7 5.9 5.9 5.9 5.9-2.7 5.9-5.9-2.7-5.9-5.9-5.9zm12.4-7.7c0 3.5 2.9 6.4 6.4 6.4s6.4-2.9 6.4-6.4-2.9-6.4-6.4-6.4c-3.6 0-6.4 2.9-6.4 6.4zm27.5-3.5c3.3 0 6-2.7 6-6s-2.7-6-6-6-6 2.7-6 6c0 3.4 2.7 6 6 6zm22.7-4.7c3.4 0 6.1-2.7 6.1-6.1s-2.7-6.1-6.1-6.1-6.1 2.7-6.1 6.1 2.8 6.1 6.1 6.1zm23.3 0c3.4 0 6.1-2.7 6.1-6.1s-2.7-6.1-6.1-6.1-6.1 2.7-6.1 6.1c-.1 3.4 2.7 6.1 6.1 6.1zm22.7-7.3c-3.3 0-6 2.7-6 6s2.7 6 6 6 6-2.7 6-6-2.7-6-6-6zm21.2 22c3.6 0 6.5-2.9 6.5-6.5s-2.9-6.5-6.5-6.5-6.5 2.9-6.5 6.5 2.9 6.5 6.5 6.5zm18.8.7c-3.6 0-6.5 2.9-6.5 6.5s2.9 6.5 6.5 6.5c3.5 0 6.5-2.9 6.5-6.5-.1-3.6-3-6.5-6.5-6.5zm15.5 17c-3.7 0-6.7 3-6.7 6.7s3 6.7 6.7 6.7 6.7-3 6.7-6.7-3-6.7-6.7-6.7zm11.6 20.2c-3.6 0-6.6 2.9-6.6 6.5s2.9 6.6 6.6 6.6c3.6 0 6.5-2.9 6.5-6.6 0-3.5-2.9-6.5-6.5-6.5zm.3 28.7c0 3.8 3.1 6.9 6.9 6.9s6.9-3.1 6.9-6.9-3.1-6.9-6.9-6.9-6.9 3-6.9 6.9zm25.2 23c0 3.5 2.8 6.4 6.3 6.4s6.3-2.8 6.3-6.4c0-3.5-2.8-6.3-6.3-6.3s-6.3 2.9-6.3 6.3zm10.6 23.2c0-3.5-2.8-6.3-6.3-6.3s-6.4 2.8-6.4 6.3 2.8 6.3 6.4 6.3c3.5 0 6.3-2.8 6.3-6.3zm-6.2 22.4c0-3.4-2.8-6.2-6.2-6.2s-6.2 2.8-6.2 6.2 2.8 6.2 6.2 6.2c3.5 0 6.2-2.8 6.2-6.2zm-9.3 21.1c0-3.7-3-6.7-6.7-6.7s-6.7 3-6.7 6.7 3 6.7 6.7 6.7c3.7-.1 6.7-3 6.7-6.7zm-13.7 19c0-3.4-2.8-6.2-6.3-6.2-3.4 0-6.2 2.8-6.2 6.2 0 3.5 2.8 6.2 6.2 6.2 3.5 0 6.3-2.7 6.3-6.2zm-22.7 22.7c3.5 0 6.3-2.8 6.3-6.2s-2.8-6.3-6.3-6.3c-3.4 0-6.2 2.8-6.2 6.3-.1 3.4 2.8 6.2 6.2 6.2zm-19 13.7c3.7 0 6.7-3 6.7-6.7s-3-6.7-6.7-6.7-6.7 3-6.7 6.7 3 6.7 6.7 6.7zm-14.9 3.2c0-3.4-2.7-6.2-6.2-6.2-3.4 0-6.1 2.8-6.1 6.2s2.8 6.1 6.1 6.1c3.4 0 6.2-2.7 6.2-6.1zm-28.6 12.3c3.5 0 6.3-2.8 6.3-6.3s-2.8-6.4-6.3-6.4-6.3 2.8-6.3 6.4c0 3.5 2.8 6.3 6.3 6.3zm-23.2 2c3.5 0 6.4-2.8 6.4-6.4 0-3.5-2.8-6.3-6.4-6.3-3.5 0-6.3 2.8-6.3 6.3 0 3.6 2.9 6.4 6.3 6.4zm-23.1-2.2c3.4 0 6.1-2.7 6.1-6.1s-2.7-6.1-6.1-6.1-6.1 2.7-6.1 6.1c0 3.3 2.7 6.1 6.1 6.1zm-22.4-18c-3.2 0-5.9 2.6-5.9 5.9 0 3.2 2.6 5.8 5.9 5.8 3.2 0 5.9-2.6 5.9-5.8-.1-3.3-2.7-5.9-5.9-5.9zm-21.1-10c-3.4 0-6.1 2.7-6.1 6.1 0 3.3 2.7 6.1 6.1 6.1s6.1-2.7 6.1-6.1-2.7-6.1-6.1-6.1zm-19-1.7c3.1 0 5.6-2.5 5.6-5.6s-2.5-5.6-5.6-5.6-5.6 2.5-5.6 5.6 2.5 5.6 5.6 5.6zm-16.4-15.9c3.3 0 6.1-2.7 6.1-6.1 0-3.3-2.7-6.1-6.1-6.1s-6.1 2.7-6.1 6.1 2.7 6.1 6.1 6.1zm-13.3-19.4c3.2 0 5.8-2.6 5.8-5.8s-2.6-5.8-5.8-5.8-5.8 2.6-5.8 5.8c0 3.3 2.6 5.8 5.8 5.8zm-4.6-26.8c0-2.9-2.4-5.3-5.3-5.3s-5.3 2.4-5.3 5.3 2.4 5.3 5.3 5.3c3 0 5.3-2.4 5.3-5.3zm-5.9-22.4c0-3-2.4-5.4-5.4-5.4s-5.4 2.4-5.4 5.4 2.4 5.4 5.4 5.4 5.4-2.4 5.4-5.4zm-12.7-23.2c0 3 2.4 5.4 5.3 5.4 3 0 5.3-2.4 5.3-5.4 0-2.9-2.4-5.3-5.3-5.3s-5.3 2.4-5.3 5.3zm2.1-23.1c0 2.9 2.4 5.3 5.3 5.3s5.3-2.4 5.3-5.3-2.4-5.3-5.3-5.3c-3 0-5.3 2.4-5.3 5.3zm11.2-27.5c-2.8 0-5 2.3-5 5s2.3 5 5 5c2.8 0 5-2.3 5-5s-2.2-5-5-5zm4.5-16c0 3 2.4 5.4 5.3 5.4 3 0 5.3-2.4 5.3-5.4 0-2.9-2.4-5.3-5.3-5.3s-5.3 2.4-5.3 5.3zm18.7-13.6c3 0 5.4-2.4 5.4-5.4s-2.4-5.4-5.4-5.4-5.4 2.4-5.4 5.4 2.4 5.4 5.4 5.4zm16.4-27.2c-3 0-5.4 2.4-5.4 5.4s2.4 5.4 5.4 5.4 5.4-2.4 5.4-5.4-2.4-5.4-5.4-5.4zm13.7-8c0 3 2.4 5.4 5.3 5.4 3 0 5.3-2.4 5.3-5.4 0-2.9-2.4-5.3-5.3-5.3s-5.3 2.4-5.3 5.3zm26.4-4.7c2.8 0 5-2.3 5-5 0-2.8-2.3-5-5-5-2.8 0-5 2.2-5 5-.1 2.7 2.2 5 5 5zm22.4-5.8c2.9 0 5.3-2.3 5.3-5.3 0-2.9-2.4-5.2-5.3-5.2s-5.3 2.3-5.3 5.2c.1 2.9 2.4 5.3 5.3 5.3zm23.1-2c3 0 5.4-2.4 5.4-5.3s-2.4-5.3-5.4-5.3c-2.9 0-5.3 2.4-5.3 5.3s2.4 5.3 5.3 5.3zm23.2 2.1c3 0 5.4-2.4 5.4-5.4s-2.4-5.4-5.4-5.4-5.4 2.4-5.4 5.4 2.4 5.4 5.4 5.4zm22.4 6c2.9 0 5.3-2.4 5.3-5.3s-2.4-5.3-5.3-5.3-5.3 2.4-5.3 5.3 2.4 5.3 5.3 5.3zm21.1 10.2c3.2 0 5.8-2.6 5.8-5.8s-2.6-5.8-5.8-5.8-5.8 2.6-5.8 5.8c0 3.3 2.6 5.8 5.8 5.8zm19 1.5c-3.3 0-6.1 2.7-6.1 6.1s2.7 6.1 6.1 6.1 6.1-2.7 6.1-6.1-2.7-6.1-6.1-6.1zm16.4 16.9c-3.1 0-5.6 2.5-5.6 5.6s2.5 5.6 5.6 5.6 5.6-2.5 5.6-5.6-2.5-5.6-5.6-5.6zm13.4 18.6c-3.4 0-6.1 2.7-6.1 6.1s2.7 6.1 6.1 6.1c3.3 0 6.1-2.7 6.1-6.1-.1-3.4-2.8-6.1-6.1-6.1zm3.9 27.1c0 3.2 2.6 5.9 5.8 5.9s5.9-2.6 5.9-5.9c0-3.2-2.6-5.8-5.9-5.8-3.2-.1-5.8 2.5-5.8 5.8zm5.8 22.4c0 3.4 2.7 6.1 6.1 6.1s6.1-2.7 6.1-6.1-2.7-6.1-6.1-6.1-6.1 2.7-6.1 6.1zm35.8 23.1c0-3-2.5-5.5-5.5-5.5s-5.5 2.5-5.5 5.5c0 3.1 2.5 5.5 5.5 5.5 3.1.1 5.5-2.4 5.5-5.5zm-7.2 17.7c-3.1 0-5.6 2.5-5.6 5.6s2.5 5.6 5.6 5.6 5.6-2.5 5.6-5.6c-.1-3.2-2.5-5.6-5.6-5.6zm.2 28.2c0-3-2.4-5.4-5.4-5.4s-5.4 2.4-5.4 5.4 2.4 5.4 5.4 5.4 5.4-2.4 5.4-5.4zm-13.9 27.6c3.3 0 5.9-2.7 5.9-5.9 0-3.3-2.7-5.9-5.9-5.9-3.3 0-5.9 2.7-5.9 5.9s2.6 5.9 5.9 5.9zm-11.6 19.7c3.1 0 5.5-2.5 5.5-5.6s-2.5-5.6-5.5-5.6c-3.1 0-5.6 2.5-5.6 5.6s2.5 5.6 5.6 5.6zm-14.5 18.3c3.1 0 5.7-2.5 5.7-5.7 0-3.1-2.5-5.7-5.7-5.7-3.1 0-5.7 2.5-5.7 5.7 0 3.1 2.6 5.7 5.7 5.7zm-17 15.6c3.1 0 5.5-2.5 5.5-5.5 0-3.1-2.5-5.6-5.5-5.6-3.1 0-5.6 2.5-5.6 5.6s2.5 5.5 5.6 5.5zm-13.7 7.6c0-3.1-2.5-5.6-5.5-5.6-3.1 0-5.6 2.5-5.6 5.6s2.5 5.5 5.6 5.5 5.5-2.5 5.5-5.5zm-26.5 4.8c-2.9 0-5.3 2.4-5.3 5.3s2.4 5.2 5.3 5.2 5.3-2.3 5.3-5.2-2.3-5.3-5.3-5.3zm-22.2 6.7c-3 0-5.4 2.4-5.4 5.4s2.4 5.4 5.4 5.4 5.4-2.4 5.4-5.4c.1-3-2.3-5.4-5.4-5.4zm-22.9 3.3c-3.1 0-5.5 2.5-5.5 5.6s2.5 5.6 5.5 5.6c3.1 0 5.6-2.5 5.6-5.6-.1-3.1-2.6-5.6-5.6-5.6zm-23.3 0c-3 0-5.5 2.5-5.5 5.5s2.5 5.5 5.5 5.5 5.5-2.5 5.5-5.5c.1-3-2.4-5.5-5.5-5.5zm-22.9-3.3c-3 0-5.4 2.4-5.4 5.4s2.4 5.4 5.4 5.4 5.4-2.4 5.4-5.4-2.4-5.4-5.4-5.4zm-22.2-6.6c-2.9 0-5.2 2.3-5.2 5.2 0 2.8 2.3 5.2 5.2 5.2s5.2-2.3 5.2-5.2c-.1-2.9-2.4-5.2-5.2-5.2zm-21-10.4c-3 0-5.5 2.5-5.5 5.5s2.4 5.5 5.5 5.5c3 0 5.5-2.4 5.5-5.5 0-3-2.5-5.5-5.5-5.5zm-19.2-2.6c2.8 0 5-2.3 5-5 0-2.8-2.3-5.1-5-5.1-2.8 0-5 2.3-5 5.1s2.2 5 5 5zm-17-15.8c2.8 0 5-2.3 5-5s-2.3-5-5-5c-2.8 0-5.1 2.3-5.1 5s2.3 5 5.1 5zm-14.5-18.4c2.6 0 4.8-2.1 4.8-4.8 0-2.6-2.1-4.8-4.8-4.8s-4.8 2.2-4.8 4.8c0 2.7 2.2 4.8 4.8 4.8zm-6.5-24.9c0-2.8-2.3-5.1-5.1-5.1s-5.1 2.3-5.1 5.1 2.3 5.1 5.1 5.1 5.1-2.3 5.1-5.1zm-13.6-17.1c2.5 0 4.6-2.1 4.6-4.6s-2-4.6-4.6-4.6c-2.5 0-4.6 2.1-4.6 4.6 0 2.6 2.1 4.6 4.6 4.6zm-5.2-22.6c2.5 0 4.6-2.1 4.6-4.6 0-2.6-2.1-4.6-4.6-4.6-2.6 0-4.6 2.1-4.6 4.6 0 2.6 2.1 4.6 4.6 4.6zm-1.7-23.1c2.6 0 4.6-2.1 4.6-4.6s-2.1-4.6-4.6-4.6-4.6 2.1-4.6 4.6 2.1 4.6 4.6 4.6zm-2.8-27.8c0 2.5 2 4.5 4.5 4.5s4.5-2 4.5-4.5-2-4.5-4.5-4.5-4.5 2-4.5 4.5zm9.7-27c-2.4 0-4.3 1.9-4.3 4.3s1.9 4.3 4.3 4.3 4.3-1.9 4.3-4.3-1.9-4.3-4.3-4.3zm8.5-22c-2.6 0-4.7 2.1-4.7 4.7s2.1 4.7 4.7 4.7 4.7-2.1 4.7-4.7-2.1-4.7-4.7-4.7zm11.6-19.7c-2.4 0-4.3 1.9-4.3 4.3s1.9 4.3 4.3 4.3 4.3-1.9 4.3-4.3-1.9-4.3-4.3-4.3zm18.9-13.9c0-2.4-2-4.4-4.4-4.4s-4.4 2-4.4 4.4 2 4.4 4.4 4.4 4.4-2 4.4-4.4zm7.8-15.8c0 2.7 2.2 4.9 4.9 4.9s4.9-2.2 4.9-4.9-2.2-4.9-4.9-4.9c-2.8 0-4.9 2.2-4.9 4.9zm19.3-13.1c0 2.6 2.1 4.7 4.7 4.7s4.7-2.1 4.7-4.7-2.1-4.7-4.7-4.7-4.7 2.1-4.7 4.7zm25.7-5c2.8 0 5-2.3 5-5 0-2.8-2.3-5.1-5-5.1-2.8 0-5.1 2.3-5.1 5.1 0 2.7 2.3 5 5.1 5zm22.2-7.4c2.5 0 4.5-2 4.5-4.5s-2-4.5-4.5-4.5-4.5 2-4.5 4.5c-.1 2.5 2 4.5 4.5 4.5zm22.9-3.4c2.5 0 4.6-2.1 4.6-4.6s-2.1-4.6-4.6-4.6-4.6 2.1-4.6 4.6c0 2.6 2.1 4.6 4.6 4.6zm23.3 0c2.6 0 4.6-2.1 4.6-4.6s-2.1-4.6-4.6-4.6-4.6 2.1-4.6 4.6c0 2.6 2 4.6 4.6 4.6zm22.9 3.5c2.5 0 4.6-2.1 4.6-4.6s-2-4.6-4.6-4.6-4.6 2.1-4.6 4.6 2.1 4.6 4.6 4.6zm22.2 7.3c2.8 0 5.1-2.3 5.1-5.1s-2.3-5.1-5.1-5.1-5.1 2.3-5.1 5.1c.1 2.9 2.3 5.1 5.1 5.1zm21 9.8c2.6 0 4.8-2.1 4.8-4.8s-2.2-4.8-4.8-4.8c-2.7 0-4.8 2.2-4.8 4.8s2.1 4.8 4.8 4.8zm19.2 2.9c-3 0-5.4 2.4-5.4 5.4s2.4 5.4 5.4 5.4 5.4-2.4 5.4-5.4-2.4-5.4-5.4-5.4zm17 16.2c-2.8 0-5 2.3-5 5.1s2.3 5 5 5c2.8 0 5-2.3 5-5 0-2.9-2.2-5.1-5-5.1zm14.5 18.1c-2.8 0-5.1 2.3-5.1 5 0 2.8 2.3 5.1 5.1 5.1s5-2.3 5-5.1c0-2.7-2.2-5-5-5zm6.1 25.2c0 3 2.5 5.5 5.5 5.5s5.5-2.5 5.5-5.5-2.4-5.5-5.5-5.5c-3 0-5.5 2.5-5.5 5.5zm14 16.5c-2.9 0-5.2 2.3-5.2 5.2s2.3 5.2 5.2 5.2 5.2-2.3 5.2-5.2-2.3-5.2-5.2-5.2zm-.3 27.8c0 3 2.4 5.4 5.4 5.4s5.4-2.4 5.4-5.4-2.4-5.4-5.4-5.4c-2.9-.1-5.4 2.4-5.4 5.4zm34.2 23.1c0-2.6-2.1-4.8-4.8-4.8-2.6 0-4.8 2.2-4.8 4.8 0 2.7 2.1 4.8 4.8 4.8s4.8-2.1 4.8-4.8zm-6.3 28c2.7 0 4.8-2.1 4.8-4.8 0-2.6-2.1-4.8-4.8-4.8-2.6 0-4.8 2.2-4.8 4.8 0 2.7 2.2 4.8 4.8 4.8zm.2 18c0-2.6-2.1-4.7-4.7-4.7s-4.7 2.1-4.7 4.7 2.1 4.7 4.7 4.7 4.7-2.1 4.7-4.7zm-12.2 26.6c2.5 0 4.5-2 4.5-4.5s-2-4.5-4.5-4.5-4.5 2-4.5 4.5 2 4.5 4.5 4.5zm-10.3 21.2c2.7 0 4.9-2.2 4.9-4.9s-2.2-4.9-4.9-4.9-4.9 2.2-4.9 4.9 2.2 4.9 4.9 4.9zm-12.9 19.6c2.9 0 5.2-2.3 5.2-5.2s-2.3-5.2-5.2-5.2-5.2 2.3-5.2 5.2 2.3 5.2 5.2 5.2zm-10.7 12.3c0-2.6-2.1-4.7-4.7-4.7s-4.7 2.1-4.7 4.7 2.1 4.7 4.7 4.7c2.6-.1 4.7-2.1 4.7-4.7zm-16.9 15.3c0-2.9-2.3-5.2-5.2-5.2-2.8 0-5.2 2.3-5.2 5.2s2.3 5.2 5.2 5.2 5.2-2.3 5.2-5.2zm-19.6 12.9c0-2.7-2.2-4.9-4.9-4.9s-4.9 2.2-4.9 4.9 2.2 4.9 4.9 4.9 4.9-2.2 4.9-4.9zm-25.8 5.8c-2.5 0-4.5 2-4.5 4.5s2 4.5 4.5 4.5 4.5-2 4.5-4.5-2-4.5-4.5-4.5zm-22 7.3c-2.6 0-4.7 2.1-4.7 4.7s2.1 4.7 4.7 4.7 4.7-2.1 4.7-4.7-2.1-4.7-4.7-4.7zm-22.8 4.4c-2.6 0-4.8 2.1-4.8 4.8 0 2.6 2.2 4.8 4.8 4.8 2.7 0 4.8-2.1 4.8-4.8s-2.1-4.8-4.8-4.8zm-23.2 1.5c-2.6 0-4.8 2.1-4.8 4.8 0 2.6 2.1 4.8 4.8 4.8s4.8-2.1 4.8-4.8c0-2.6-2.1-4.8-4.8-4.8zm-23.1-1.4c-2.6 0-4.7 2.1-4.7 4.7s2.1 4.7 4.7 4.7 4.7-2.1 4.7-4.7-2.1-4.7-4.7-4.7zm-22.8-4.3c-2.5 0-4.5 2-4.5 4.5s2 4.5 4.5 4.5 4.5-2 4.5-4.5-2.1-4.5-4.5-4.5zm-22-7.2c-2.3 0-4.2 1.9-4.2 4.2s1.9 4.2 4.2 4.2 4.2-1.9 4.2-4.2-1.9-4.2-4.2-4.2zm-20.9-10.5c-2.4 0-4.4 2-4.4 4.4 0 2.5 2 4.5 4.4 4.5s4.4-2 4.4-4.5c.1-2.4-1.9-4.4-4.4-4.4zm-19.3-13c-2.5 0-4.5 2-4.5 4.5s2 4.5 4.5 4.5 4.5-2 4.5-4.5-2-4.5-4.5-4.5zm-13.5-10.8c0-2.2-1.8-4-4-4s-4 1.8-4 4 1.8 4 4 4 4-1.8 4-4zm-19.3-13.1c2.4 0 4.4-2 4.4-4.4s-2-4.4-4.4-4.4-4.4 2-4.4 4.4 2 4.4 4.4 4.4zm-8.8-23.7c0-2.3-1.9-4.1-4.1-4.1-2.3 0-4.1 1.9-4.1 4.1 0 2.3 1.9 4.2 4.1 4.2 2.3-.1 4.1-1.9 4.1-4.2zm-10-20.9c0-2.4-2-4.4-4.4-4.4s-4.4 2-4.4 4.4 2 4.4 4.4 4.4 4.4-1.9 4.4-4.4zm-8-22c0-2.1-1.7-3.9-3.9-3.9-2.1 0-3.9 1.7-3.9 3.9 0 2.1 1.7 3.9 3.9 3.9s3.9-1.7 3.9-3.9zm-4.5-22.8c0-2.2-1.8-3.9-3.9-3.9-2.2 0-3.9 1.8-3.9 3.9 0 2.2 1.8 3.9 3.9 3.9 2.2.1 3.9-1.7 3.9-3.9zm-9.3-23.2c0 2.2 1.8 3.9 3.9 3.9 2.2 0 3.9-1.8 3.9-3.9 0-2.2-1.8-3.9-3.9-3.9-2.2 0-3.9 1.8-3.9 3.9zm9.3-23.1c0-2.1-1.7-3.9-3.9-3.9-2.1 0-3.9 1.7-3.9 3.9 0 2.1 1.7 3.9 3.9 3.9 2.2-.1 3.9-1.8 3.9-3.9zm.6-19.1c2 0 3.7-1.7 3.7-3.7s-1.7-3.7-3.7-3.7-3.7 1.7-3.7 3.7 1.7 3.7 3.7 3.7zm11.6-25.7c0-2.2-1.8-4.1-4.1-4.1-2.2 0-4.1 1.8-4.1 4.1 0 2.2 1.8 4.1 4.1 4.1 2.3-.1 4.1-1.9 4.1-4.1zm6.2-17.1c2.1 0 3.8-1.7 3.8-3.8s-1.7-3.8-3.8-3.8-3.8 1.7-3.8 3.8 1.7 3.8 3.8 3.8zm12.9-27c-2.1 0-3.9 1.7-3.9 3.9 0 2.1 1.7 3.9 3.9 3.9 2.1 0 3.9-1.7 3.9-3.9s-1.7-3.9-3.9-3.9zm11.9-13.6c0 1.9 1.5 3.4 3.4 3.4s3.4-1.6 3.4-3.4-1.5-3.4-3.4-3.4-3.4 1.5-3.4 3.4zm17-15.3c0 2.1 1.7 3.9 3.9 3.9 2.1 0 3.9-1.7 3.9-3.9 0-2.1-1.7-3.9-3.9-3.9-2.1 0-3.9 1.8-3.9 3.9zm19.4-12.9c0 2.1 1.7 3.8 3.8 3.8s3.8-1.7 3.8-3.8-1.7-3.8-3.8-3.8-3.8 1.7-3.8 3.8zm24.7-6.2c2.2 0 4.1-1.8 4.1-4.1 0-2.2-1.8-4.1-4.1-4.1-2.2 0-4.1 1.8-4.1 4.1s1.8 4.1 4.1 4.1zm22-7.9c2 0 3.7-1.7 3.7-3.7s-1.7-3.7-3.7-3.7-3.7 1.7-3.7 3.7c0 2.1 1.6 3.7 3.7 3.7zm22.8-4.3c2.1 0 3.9-1.7 3.9-3.9s-1.7-3.9-3.9-3.9c-2.1 0-3.9 1.7-3.9 3.9s1.7 3.9 3.9 3.9zm23.1-1.5c2.2 0 3.9-1.8 3.9-3.9 0-2.2-1.8-3.9-3.9-3.9-2.2 0-3.9 1.8-3.9 3.9 0 2.2 1.8 3.9 3.9 3.9zm23.2 1.5c2.2 0 3.9-1.8 3.9-3.9 0-2.2-1.8-3.9-3.9-3.9-2.2 0-3.9 1.8-3.9 3.9 0 2.2 1.8 3.9 3.9 3.9zm22.8 4.5c2.1 0 3.9-1.7 3.9-3.9 0-2.1-1.8-3.9-3.9-3.9s-3.9 1.7-3.9 3.9 1.8 3.9 3.9 3.9zm22 8c2.4 0 4.4-2 4.4-4.4s-2-4.4-4.4-4.4-4.4 2-4.4 4.4 2 4.4 4.4 4.4zm20.9 10c2.3 0 4.1-1.9 4.1-4.1 0-2.3-1.8-4.2-4.1-4.2s-4.1 1.9-4.1 4.2 1.8 4.1 4.1 4.1zm19.3 13.2c2.4 0 4.4-2 4.4-4.4s-2-4.4-4.4-4.4-4.4 2-4.4 4.4 2 4.4 4.4 4.4zm13.5 10.9c0 2.2 1.8 4 4 4s4-1.8 4-4-1.8-4-4-4-4 1.8-4 4zm23.8 17.5c0-2.5-2-4.5-4.5-4.5s-4.5 2-4.5 4.5 2 4.5 4.5 4.5 4.5-2 4.5-4.5zm4 19.3c0 2.5 2 4.4 4.4 4.4 2.5 0 4.5-2 4.5-4.4 0-2.5-2-4.4-4.5-4.4-2.4 0-4.4 2-4.4 4.4zm10.5 20.9c0 2.3 1.9 4.2 4.2 4.2s4.2-1.9 4.2-4.2-1.9-4.2-4.2-4.2c-2.3-.1-4.2 1.8-4.2 4.2zm7.2 22c0 2.5 2 4.5 4.5 4.5s4.5-2 4.5-4.5-2-4.5-4.5-4.5-4.5 2-4.5 4.5zm9 27.5c2.6 0 4.7-2.1 4.7-4.7s-2.1-4.7-4.7-4.7-4.7 2.1-4.7 4.7 2.1 4.7 4.7 4.7zm23.7 14.4c-2.3 0-4.1 1.8-4.1 4.1s1.8 4.1 4.1 4.1 4.1-1.9 4.1-4.1c0-2.3-1.8-4.1-4.1-4.1zm-1.3 31.3c2.3 0 4.1-1.8 4.1-4.1s-1.9-4.1-4.1-4.1c-2.3 0-4.1 1.8-4.1 4.1s1.8 4.1 4.1 4.1zm-4.1 14.8c-2.2 0-4 1.8-4 4s1.8 4 4 4 4-1.8 4-4c.1-2.2-1.7-4-4-4zm-2.7 26.3c0-2.1-1.7-3.9-3.9-3.9s-3.9 1.7-3.9 3.9c0 2.1 1.7 3.9 3.9 3.9 2.1 0 3.9-1.8 3.9-3.9zm-13.1 25.6c2.4 0 4.3-1.9 4.3-4.3 0-2.3-1.9-4.3-4.3-4.3s-4.3 1.9-4.3 4.3 1.9 4.3 4.3 4.3zm-11.7 19.9c2.2 0 4-1.8 4-4s-1.8-4-4-4-4 1.8-4 4c.1 2.2 1.9 4 4 4zm-13.8 10.5c-2.3 0-4.1 1.9-4.1 4.1 0 2.3 1.9 4.2 4.1 4.2 2.3 0 4.2-1.9 4.2-4.2-.1-2.3-1.9-4.1-4.2-4.1zm-11.9 21c0-2.3-1.9-4.1-4.1-4.1-2.3 0-4.1 1.9-4.1 4.1 0 2.3 1.9 4.1 4.1 4.1 2.3.1 4.1-1.8 4.1-4.1zm-17.3 15c0-2.5-2.1-4.6-4.6-4.6s-4.6 2.1-4.6 4.6 2 4.6 4.6 4.6c2.5-.1 4.6-2.1 4.6-4.6zm-20 12.7c0-2.2-1.8-4-4-4s-4 1.8-4 4 1.8 4 4 4 4-1.8 4-4zm-24.8 6.2c-2.4 0-4.3 1.9-4.3 4.3s1.9 4.3 4.3 4.3 4.3-1.9 4.3-4.3-1.9-4.3-4.3-4.3zm-21.8 8.3c-2.2 0-3.9 1.7-3.9 3.9 0 2.1 1.7 3.9 3.9 3.9 2.1 0 3.9-1.8 3.9-3.9s-1.8-3.9-3.9-3.9zm-22.6 5.3c-2.2 0-4 1.8-4 4s1.8 4 4 4 4-1.8 4-4-1.8-4-4-4zm-23.1 2.6c-2.3 0-4.1 1.8-4.1 4.1s1.8 4.1 4.1 4.1 4.1-1.8 4.1-4.1-1.9-4.1-4.1-4.1zm-23.3 0c-2.3 0-4.1 1.8-4.1 4.1s1.8 4.1 4.1 4.1 4.1-1.8 4.1-4.1-1.8-4.1-4.1-4.1zm-23.1-2.6c-2.2 0-4 1.8-4 4s1.8 4 4 4 4-1.8 4-4c.1-2.2-1.7-4-4-4zm-22.6-5.3c-2.1 0-3.9 1.7-3.9 3.9 0 2.1 1.7 3.9 3.9 3.9 2.1 0 3.9-1.8 3.9-3.9s-1.7-3.9-3.9-3.9zm-21.8-8.3c-2.3 0-4.2 1.9-4.2 4.2s1.9 4.2 4.2 4.2 4.2-1.9 4.2-4.2-1.9-4.2-4.2-4.2zm-20.8-10c-2.1 0-3.9 1.7-3.9 3.9s1.7 3.9 3.9 3.9c2.1 0 3.9-1.7 3.9-3.9s-1.7-3.9-3.9-3.9zm-19.4-12.9c-2.2 0-4 1.8-4 4s1.8 4 4 4 4-1.8 4-4-1.8-4-4-4zm-14.2-11c0-2-1.6-3.6-3.6-3.6s-3.6 1.6-3.6 3.6 1.6 3.6 3.6 3.6 3.6-1.6 3.6-3.6zm-16.1-16.9c0-1.9-1.6-3.5-3.5-3.5s-3.5 1.6-3.5 3.5 1.6 3.5 3.5 3.5c2 0 3.5-1.6 3.5-3.5zm-17.3-22.5c-2.1 0-3.9 1.8-3.9 3.9s1.7 3.9 3.9 3.9c2.1 0 3.9-1.7 3.9-3.9-.1-2.2-1.8-3.9-3.9-3.9zm-11.7-12.7c2 0 3.5-1.6 3.5-3.5s-1.6-3.5-3.5-3.5-3.5 1.6-3.5 3.5 1.6 3.5 3.5 3.5zm-9.2-28.6c-2.1 0-3.8 1.7-3.8 3.7 0 2.1 1.7 3.8 3.8 3.8s3.8-1.7 3.8-3.8-1.7-3.7-3.8-3.7zm-3.4-18.6c0-1.8-1.5-3.2-3.2-3.2-1.8 0-3.2 1.5-3.2 3.2 0 1.8 1.5 3.2 3.2 3.2 1.8.1 3.2-1.4 3.2-3.2zm-4-22.9c0-1.8-1.5-3.3-3.3-3.3s-3.3 1.5-3.3 3.3 1.5 3.3 3.3 3.3 3.3-1.4 3.3-3.3zm-4.6-19.9c1.8 0 3.3-1.5 3.3-3.3s-1.5-3.3-3.3-3.3-3.3 1.5-3.3 3.3c0 1.9 1.5 3.3 3.3 3.3zm-1.9-26.4c0 1.8 1.4 3.2 3.2 3.2s3.2-1.5 3.2-3.2c0-1.8-1.4-3.2-3.2-3.2-1.8-.1-3.2 1.4-3.2 3.2zm7.3-19.9c1.7 0 3.1-1.4 3.1-3.1s-1.4-3-3.1-3-3.1 1.4-3.1 3c0 1.7 1.4 3.1 3.1 3.1zm3.2-25.3c0 1.9 1.5 3.4 3.4 3.4s3.4-1.5 3.4-3.4-1.5-3.4-3.4-3.4c-1.9-.1-3.4 1.5-3.4 3.4zm12.6-24.5c-1.8 0-3.2 1.4-3.2 3.2s1.4 3.2 3.2 3.2 3.2-1.4 3.2-3.2-1.4-3.2-3.2-3.2zm11.7-13.6c1.9 0 3.4-1.5 3.4-3.4s-1.5-3.3-3.4-3.3-3.4 1.5-3.4 3.3c0 1.9 1.5 3.4 3.4 3.4zm13.8-19.1c1.6 0 3-1.3 3-3s-1.3-3-3-3-3 1.3-3 3c.1 1.7 1.4 3 3 3zm16-16.4c1.9 0 3.4-1.5 3.4-3.4s-1.5-3.4-3.4-3.4-3.4 1.6-3.4 3.4c-.1 1.9 1.5 3.4 3.4 3.4zm14.4-18.4c0 1.9 1.5 3.4 3.4 3.4s3.4-1.5 3.4-3.4-1.5-3.3-3.4-3.3-3.4 1.5-3.4 3.3zm19.6-12.7c0 1.8 1.4 3.2 3.2 3.2s3.2-1.4 3.2-3.2-1.4-3.2-3.2-3.2c-1.7 0-3.2 1.4-3.2 3.2zm24-7c1.9 0 3.4-1.6 3.4-3.5s-1.5-3.4-3.4-3.4-3.4 1.6-3.4 3.4c-.1 1.9 1.5 3.5 3.4 3.5zm21.8-8.4c1.7 0 3.1-1.4 3.1-3.1s-1.4-3.1-3.1-3.1-3.1 1.4-3.1 3.1 1.4 3.1 3.1 3.1zm22.6-5.1c1.8 0 3.2-1.5 3.2-3.2 0-1.8-1.4-3.2-3.2-3.2s-3.2 1.5-3.2 3.2 1.5 3.2 3.2 3.2zm23.1-2.7c1.8 0 3.3-1.5 3.3-3.3s-1.5-3.3-3.3-3.3-3.3 1.5-3.3 3.3c.1 1.8 1.5 3.3 3.3 3.3zm23.3 0c1.8 0 3.3-1.5 3.3-3.3s-1.5-3.3-3.3-3.3-3.3 1.5-3.3 3.3 1.5 3.3 3.3 3.3zm23.1 2.7c1.8 0 3.2-1.5 3.2-3.2 0-1.8-1.5-3.2-3.2-3.2-1.8 0-3.2 1.5-3.2 3.2-.1 1.7 1.4 3.2 3.2 3.2zm22.6 5.2c1.7 0 3.1-1.4 3.1-3.1s-1.4-3.1-3.1-3.1-3.1 1.4-3.1 3.1 1.4 3.1 3.1 3.1zm21.8 8.4c2 0 3.5-1.6 3.5-3.5s-1.6-3.5-3.5-3.5c-2 0-3.5 1.6-3.5 3.5s1.6 3.5 3.5 3.5zm20.8 10.1c1.8 0 3.3-1.5 3.3-3.3s-1.5-3.3-3.3-3.3-3.3 1.5-3.3 3.3 1.5 3.3 3.3 3.3zm19.4 13.4c2.1 0 3.9-1.7 3.9-3.9 0-2.1-1.7-3.9-3.9-3.9-2.1 0-3.9 1.7-3.9 3.9s1.8 3.9 3.9 3.9zm13.8 11.1c0 2.2 1.8 4 4 4s4-1.8 4-4-1.8-4-4-4-4 1.7-4 4zm16.4 16.9c0 2 1.6 3.6 3.6 3.6s3.6-1.6 3.6-3.6-1.6-3.6-3.6-3.6-3.6 1.6-3.6 3.6zm17.4 15.1c-1.9 0-3.5 1.6-3.5 3.5 0 2 1.6 3.5 3.5 3.5 2 0 3.5-1.6 3.5-3.5.1-1.9-1.5-3.5-3.5-3.5zm11.7 19.8c-2.1 0-3.9 1.8-3.9 3.9s1.8 3.9 3.9 3.9 3.9-1.7 3.9-3.9c-.1-2.2-1.8-3.9-3.9-3.9zm9.2 28.8c2 0 3.6-1.6 3.6-3.6s-1.6-3.6-3.6-3.6-3.6 1.6-3.6 3.6 1.6 3.6 3.6 3.6zm2.8 18.6c0 2.2 1.7 3.9 3.9 3.9s3.9-1.7 3.9-3.9c0-2.1-1.7-3.9-3.9-3.9s-3.9 1.8-3.9 3.9zm3.9 23c0 2.2 1.8 4 4 4s4-1.8 4-4-1.8-4-4-4c-2.2-.1-4 1.7-4 4zm27.5 19.7c-1.9 0-3.4 1.5-3.4 3.4s1.5 3.5 3.4 3.5 3.4-1.6 3.4-3.5c.1-1.9-1.5-3.4-3.4-3.4zm2.3 26.7c0-1.9-1.6-3.4-3.5-3.4s-3.4 1.5-3.4 3.4 1.5 3.4 3.4 3.4 3.5-1.5 3.5-3.4zm-7.1 19.6c-1.9 0-3.3 1.5-3.3 3.3 0 1.9 1.5 3.4 3.3 3.4 1.9 0 3.4-1.5 3.4-3.4-.1-1.8-1.6-3.3-3.4-3.3zm-6 22.5c-1.8 0-3.3 1.5-3.3 3.3s1.5 3.3 3.3 3.3 3.3-1.5 3.3-3.3c-.1-1.8-1.5-3.3-3.3-3.3zm-8.4 28.6c2 0 3.7-1.6 3.7-3.7 0-2-1.6-3.6-3.7-3.6-2 0-3.7 1.6-3.7 3.6.1 2.1 1.7 3.7 3.7 3.7zm-10.5 13.7c-1.9 0-3.4 1.5-3.4 3.4s1.5 3.4 3.4 3.4 3.4-1.5 3.4-3.4-1.5-3.4-3.4-3.4zm-9.1 22.9c0-2-1.6-3.6-3.6-3.6s-3.6 1.6-3.6 3.6 1.6 3.6 3.6 3.6 3.6-1.6 3.6-3.6zm-18.2 14.8c-1.8 0-3.2 1.5-3.2 3.2 0 1.8 1.5 3.2 3.2 3.2 1.8 0 3.2-1.5 3.2-3.2s-1.4-3.2-3.2-3.2zm-13.2 19.7c0-1.8-1.5-3.2-3.2-3.2-1.8 0-3.2 1.4-3.2 3.2s1.5 3.2 3.2 3.2 3.2-1.4 3.2-3.2zm-17.7 14.6c0-2-1.6-3.6-3.6-3.6s-3.6 1.6-3.6 3.6 1.6 3.6 3.6 3.6 3.6-1.6 3.6-3.6zm-19.7 12.7c0-1.9-1.5-3.4-3.4-3.4s-3.4 1.5-3.4 3.4 1.5 3.4 3.4 3.4 3.4-1.5 3.4-3.4zm-24.1 6.9c-2 0-3.7 1.6-3.7 3.7 0 2 1.7 3.6 3.7 3.6s3.7-1.6 3.7-3.6c-.1-2.1-1.7-3.7-3.7-3.7zm-21.7 8.7c-1.8 0-3.3 1.5-3.3 3.3s1.5 3.3 3.3 3.3 3.3-1.5 3.3-3.3-1.5-3.3-3.3-3.3zm-22.5 5.9c-1.9 0-3.3 1.5-3.3 3.3 0 1.9 1.5 3.4 3.3 3.4 1.9 0 3.4-1.5 3.4-3.4 0-1.8-1.5-3.3-3.4-3.3zm-22.9 3.6c-1.9 0-3.5 1.5-3.5 3.4s1.6 3.4 3.5 3.4 3.4-1.6 3.4-3.4c0-1.9-1.5-3.4-3.4-3.4zm-23.3 1.2c-1.9 0-3.4 1.5-3.4 3.4s1.6 3.4 3.4 3.4c1.9 0 3.5-1.6 3.5-3.4 0-1.9-1.5-3.4-3.5-3.4zm-23.2-1.1c-1.9 0-3.4 1.5-3.4 3.4s1.5 3.3 3.4 3.3 3.4-1.5 3.4-3.3c0-2-1.5-3.4-3.4-3.4zm-22.9-3.6c-1.8 0-3.2 1.5-3.2 3.2 0 1.8 1.4 3.2 3.2 3.2s3.2-1.5 3.2-3.2-1.4-3.2-3.2-3.2zm-22.5-5.8c-1.7 0-3 1.4-3 3 0 1.7 1.4 3 3 3s3-1.4 3-3-1.3-3-3-3zm-21.7-8.6c-1.8 0-3.3 1.5-3.3 3.3s1.5 3.3 3.3 3.3 3.3-1.5 3.3-3.3-1.4-3.3-3.3-3.3zm-20.7-10.2c-1.6 0-3 1.3-3 3s1.3 3 3 3 3-1.3 3-3-1.3-3-3-3zm-19.5-12.8c-1.7 0-3.1 1.4-3.1 3.1s1.4 3.1 3.1 3.1 3.1-1.4 3.1-3.1-1.4-3.1-3.1-3.1zm-18-14.2c-1.5 0-2.7 1.2-2.7 2.7s1.2 2.7 2.7 2.7 2.7-1.2 2.7-2.7c-.1-1.5-1.3-2.7-2.7-2.7zm-13.4-13.7c0-1.7-1.4-3.1-3.1-3.1s-3.1 1.4-3.1 3.1 1.4 3.1 3.1 3.1 3.1-1.4 3.1-3.1zm-14.8-18.1c0-1.6-1.3-2.9-2.9-2.9s-2.9 1.3-2.9 2.9 1.3 2.9 2.9 2.9 2.9-1.3 2.9-2.9zm-15.6-16.8c1.5 0 2.7-1.2 2.7-2.7s-1.2-2.7-2.7-2.7-2.7 1.2-2.7 2.7c.1 1.5 1.3 2.7 2.7 2.7zm-10.5-20.5c1.6 0 2.9-1.3 2.9-2.9s-1.3-2.9-2.9-2.9-2.9 1.3-2.9 2.9c-.1 1.6 1.3 2.9 2.9 2.9zm-8.4-27.7c-1.7 0-3.1 1.4-3.1 3.1s1.4 3.1 3.1 3.1 3.1-1.4 3.1-3.1c.1-1.7-1.3-3.1-3.1-3.1zm-6-22c-1.5 0-2.6 1.2-2.6 2.6s1.2 2.6 2.6 2.6c1.5 0 2.6-1.2 2.6-2.6s-1.1-2.6-2.6-2.6zm-.9-20.3c0-1.5-1.2-2.7-2.7-2.7s-2.7 1.2-2.7 2.7 1.2 2.7 2.7 2.7c1.5-.1 2.7-1.3 2.7-2.7zm-1.2-23.3c0-1.5-1.2-2.7-2.7-2.7s-2.7 1.2-2.7 2.7 1.2 2.7 2.7 2.7 2.7-1.2 2.7-2.7zm-1.5-20.5c1.5 0 2.6-1.2 2.6-2.6s-1.2-2.6-2.6-2.6c-1.5 0-2.6 1.2-2.6 2.6s1.1 2.6 2.6 2.6zm3.6-23.2c1.4 0 2.5-1.1 2.5-2.5s-1.1-2.4-2.5-2.4-2.5 1.1-2.5 2.4c.1 1.4 1.2 2.5 2.5 2.5zm6-22c1.6 0 2.9-1.3 2.9-2.9s-1.3-2.9-2.9-2.9-2.9 1.3-2.9 2.9c.1 1.6 1.4 2.9 2.9 2.9zm11-24.6c0-1.5-1.2-2.7-2.7-2.7s-2.7 1.2-2.7 2.7 1.2 2.7 2.7 2.7 2.7-1.2 2.7-2.7zm7.9-18.3c1.3 0 2.4-1.1 2.4-2.4s-1.1-2.4-2.4-2.4-2.4 1.1-2.4 2.4c.1 1.3 1.1 2.4 2.4 2.4zm12.7-19.3c1.4 0 2.5-1.1 2.5-2.5s-1.1-2.6-2.5-2.6-2.6 1.1-2.6 2.6c0 1.3 1.2 2.5 2.6 2.5zm14.6-18.1c1.4 0 2.6-1.2 2.6-2.6s-1.1-2.6-2.6-2.6c-1.4 0-2.6 1.2-2.6 2.6 0 1.5 1.2 2.6 2.6 2.6zm16.5-16.4c1.4 0 2.6-1.2 2.6-2.6s-1.2-2.6-2.6-2.6-2.6 1.2-2.6 2.6 1.1 2.6 2.6 2.6zm15.5-17.2c0 1.4 1.1 2.5 2.5 2.5s2.5-1.1 2.5-2.5-1.1-2.5-2.5-2.5c-1.4-.1-2.5 1.1-2.5 2.5zm19.6-12.7c0 1.3 1.1 2.4 2.4 2.4s2.4-1.1 2.4-2.4-1.1-2.4-2.4-2.4-2.4 1.1-2.4 2.4zm23.1-7.9c1.5 0 2.7-1.2 2.7-2.7s-1.2-2.7-2.7-2.7-2.7 1.2-2.7 2.7c.1 1.6 1.2 2.7 2.7 2.7zm21.7-8.1c1.6 0 2.9-1.3 2.9-2.9s-1.3-2.9-2.9-2.9-2.9 1.3-2.9 2.9 1.3 2.9 2.9 2.9zm22.5-6.4c1.4 0 2.5-1.1 2.5-2.5s-1.1-2.5-2.5-2.5-2.5 1.1-2.5 2.5 1.1 2.5 2.5 2.5zm22.9-3.5c1.5 0 2.6-1.2 2.6-2.6 0-1.5-1.2-2.6-2.6-2.6s-2.6 1.2-2.6 2.6 1.2 2.6 2.6 2.6zm23.2-1.2c1.5 0 2.7-1.2 2.7-2.7s-1.2-2.7-2.7-2.7-2.7 1.2-2.7 2.7c.1 1.6 1.3 2.7 2.7 2.7zm23.3 1.3c1.5 0 2.7-1.2 2.7-2.7s-1.2-2.7-2.7-2.7-2.7 1.2-2.7 2.7 1.2 2.7 2.7 2.7zm22.9 3.5c1.5 0 2.6-1.2 2.6-2.6 0-1.5-1.2-2.6-2.6-2.6s-2.6 1.2-2.6 2.6c0 1.5 1.2 2.6 2.6 2.6zm22.5 6.5c1.7 0 3.1-1.4 3.1-3.1s-1.4-3.1-3.1-3.1-3.1 1.4-3.1 3.1 1.4 3.1 3.1 3.1zm21.7 8.2c1.6 0 2.9-1.3 2.9-2.9s-1.3-2.9-2.9-2.9-2.9 1.3-2.9 2.9 1.3 2.9 2.9 2.9zm20.7 10.3c1.5 0 2.7-1.2 2.7-2.7s-1.2-2.7-2.7-2.7-2.7 1.2-2.7 2.7 1.2 2.7 2.7 2.7zm19.5 12.9c1.6 0 2.9-1.3 2.9-2.9s-1.3-2.9-2.9-2.9-2.9 1.3-2.9 2.9 1.3 2.9 2.9 2.9zm18 14.8c1.7 0 3.1-1.4 3.1-3.1s-1.4-3.1-3.1-3.1-3.1 1.4-3.1 3.1 1.5 3.1 3.1 3.1zm13.8 13.4c0 1.5 1.2 2.7 2.7 2.7s2.7-1.2 2.7-2.7-1.2-2.7-2.7-2.7-2.7 1.2-2.7 2.7zm14.2 18c0 1.7 1.4 3.1 3.1 3.1s3.1-1.4 3.1-3.1-1.4-3.1-3.1-3.1-3.1 1.4-3.1 3.1zm15.8 16.5c-1.6 0-3 1.3-3 3 0 1.6 1.3 3 3 3 1.6 0 3-1.3 3-3-.1-1.6-1.4-3-3-3zm13.9 23.7c0-1.8-1.5-3.3-3.3-3.3s-3.3 1.5-3.3 3.3 1.5 3.3 3.3 3.3 3.3-1.4 3.3-3.3zm5 24.7c1.7 0 3-1.4 3-3 0-1.7-1.4-3-3-3-1.7 0-3 1.4-3 3-.1 1.7 1.3 3 3 3zm6 16.2c-1.8 0-3.2 1.5-3.2 3.2 0 1.8 1.5 3.2 3.2 3.2 1.8 0 3.2-1.5 3.2-3.2s-1.4-3.2-3.2-3.2zm.3 26.2c0 1.9 1.5 3.4 3.3 3.4 1.9 0 3.4-1.5 3.4-3.4s-1.5-3.4-3.4-3.4c-1.8.1-3.3 1.6-3.3 3.4zm26.7 20.5c-1.5 0-2.8 1.2-2.8 2.8s1.3 2.8 2.8 2.8c1.6 0 2.8-1.2 2.8-2.8s-1.2-2.8-2.8-2.8zm-1.1 23.2c-1.6 0-2.8 1.3-2.8 2.8 0 1.6 1.3 2.8 2.8 2.8s2.8-1.3 2.8-2.8c0-1.6-1.2-2.8-2.8-2.8zm-.5 25.8c0-1.5-1.2-2.7-2.8-2.7-1.5 0-2.8 1.2-2.8 2.7s1.2 2.8 2.8 2.8c1.6-.1 2.8-1.3 2.8-2.8zm-8.2 19.9c-1.5 0-2.7 1.2-2.7 2.7s1.2 2.7 2.7 2.7 2.7-1.2 2.7-2.7c-.1-1.5-1.3-2.7-2.7-2.7zm-4.6 24.6c0-1.7-1.4-3-3.1-3s-3.1 1.4-3.1 3c0 1.7 1.4 3.1 3.1 3.1s3.1-1.4 3.1-3.1zm-12.7 24c1.6 0 2.8-1.3 2.8-2.8 0-1.6-1.3-2.8-2.8-2.8-1.6 0-2.8 1.3-2.8 2.8-.1 1.6 1.2 2.8 2.8 2.8zm-11.6 14.3c-1.7 0-3.1 1.4-3.1 3.1s1.4 3.1 3.1 3.1 3.1-1.4 3.1-3.1c-.1-1.8-1.4-3.1-3.1-3.1zm-10.8 22c0-1.5-1.2-2.7-2.7-2.7s-2.7 1.2-2.7 2.7 1.2 2.7 2.7 2.7 2.7-1.3 2.7-2.7zm-17.9 14.7c-1.6 0-2.8 1.2-2.8 2.8s1.3 2.8 2.8 2.8 2.8-1.2 2.8-2.8c0-1.5-1.3-2.8-2.8-2.8zm-16.9 15.6c-1.8 0-3.2 1.5-3.2 3.2 0 1.8 1.5 3.2 3.2 3.2 1.8 0 3.2-1.4 3.2-3.2.1-1.7-1.4-3.2-3.2-3.2zm-15.5 17.6c0-1.5-1.2-2.7-2.7-2.7s-2.7 1.2-2.7 2.7 1.2 2.7 2.7 2.7c1.5.1 2.7-1.2 2.7-2.7zm-22.3 10.1c-1.4 0-2.5 1.1-2.5 2.5s1.1 2.5 2.5 2.5 2.5-1.1 2.5-2.5-1.1-2.5-2.5-2.5zm-20.7 10.3c-1.6 0-2.9 1.3-2.9 2.8 0 1.6 1.3 2.9 2.9 2.9s2.8-1.3 2.8-2.9c.1-1.5-1.2-2.8-2.8-2.8zm-21.5 9c-1.4 0-2.5 1.1-2.5 2.5s1.1 2.5 2.5 2.5 2.5-1.1 2.5-2.5-1.2-2.5-2.5-2.5zm-22.3 6.4c-1.5 0-2.7 1.2-2.7 2.7s1.2 2.7 2.7 2.7 2.7-1.2 2.7-2.7c-.1-1.5-1.3-2.7-2.7-2.7zm-22.9 4.3c-1.5 0-2.8 1.2-2.8 2.8 0 1.5 1.2 2.8 2.8 2.8 1.5 0 2.8-1.2 2.8-2.8s-1.3-2.8-2.8-2.8zm-23.1 2.2c-1.6 0-2.8 1.3-2.8 2.8s1.3 2.8 2.8 2.8 2.8-1.3 2.8-2.8c0-1.6-1.3-2.8-2.8-2.8zm-23.3 0c-1.6 0-2.8 1.3-2.8 2.8s1.2 2.8 2.8 2.8c1.5 0 2.8-1.3 2.8-2.8 0-1.6-1.2-2.8-2.8-2.8zm-23.1-2.2c-1.5 0-2.8 1.2-2.8 2.8 0 1.5 1.2 2.8 2.8 2.8 1.5 0 2.8-1.2 2.8-2.8s-1.3-2.8-2.8-2.8zm-22.8-4.3c-1.5 0-2.6 1.2-2.6 2.6 0 1.5 1.2 2.6 2.6 2.6 1.5 0 2.6-1.2 2.6-2.6s-1.2-2.6-2.6-2.6zm-22.3-6.4c-1.4 0-2.5 1.1-2.5 2.5s1.1 2.5 2.5 2.5 2.5-1.1 2.5-2.5c-.1-1.4-1.2-2.5-2.5-2.5zm-21.6-8.9c-1.5 0-2.8 1.2-2.8 2.7s1.2 2.8 2.8 2.8c1.5 0 2.8-1.2 2.8-2.8-.1-1.5-1.3-2.7-2.8-2.7zm-20.7-10.4c-1.4 0-2.5 1.1-2.5 2.5s1.1 2.5 2.5 2.5 2.4-1.1 2.4-2.5-1-2.5-2.4-2.5zm-19.5-12.7c-1.5 0-2.7 1.2-2.7 2.7s1.2 2.7 2.7 2.7 2.7-1.2 2.7-2.7c-.1-1.5-1.3-2.7-2.7-2.7zm-18.3-14.4c-1.5 0-2.7 1.2-2.7 2.7s1.2 2.7 2.7 2.7 2.7-1.2 2.7-2.7-1.2-2.7-2.7-2.7zm-16.8-15.7c-1.3 0-2.3 1-2.3 2.3s1 2.3 2.3 2.3 2.3-1 2.3-2.3c-.1-1.2-1.1-2.3-2.3-2.3zm-15.3-17.4c-1.2 0-2.2 1-2.2 2.2s1 2.2 2.2 2.2 2.2-1 2.2-2.2-1-2.2-2.2-2.2zm-11-16.8c0-1.4-1.1-2.5-2.5-2.5s-2.4 1.1-2.4 2.5 1.1 2.5 2.4 2.5c1.4 0 2.5-1.1 2.5-2.5zm-11.9-20.1c0-1.2-1-2.2-2.2-2.2s-2.1 1-2.1 2.2 1 2.2 2.1 2.2 2.2-1 2.2-2.2zm-11.8-23.5c-1.3 0-2.4 1.1-2.4 2.4s1.1 2.4 2.4 2.4 2.4-1.1 2.4-2.4c-.1-1.4-1.1-2.4-2.4-2.4zm-5.1-19.6c0-1.4-1.1-2.5-2.5-2.5s-2.5 1.1-2.5 2.5 1.1 2.5 2.5 2.5c1.3 0 2.5-1.2 2.5-2.5zm-8-24.7c-1.1 0-2.1.9-2.1 2.1 0 1.1.9 2.1 2.1 2.1 1.1 0 2.1-.9 2.1-2.1s-1-2.1-2.1-2.1zm-3.3-23.1c-1.2 0-2.1.9-2.1 2.1s.9 2.1 2.1 2.1 2.1-.9 2.1-2.1c0-1.1-1-2.1-2.1-2.1zm1-21.1c0-1.2-.9-2.1-2.1-2.1s-2.1.9-2.1 2.1.9 2.1 2.1 2.1c1.1.1 2.1-.9 2.1-2.1zm-1-21.1c1.1 0 2-.9 2-2s-.9-2-2-2-2 .9-2 2 .9 2 2 2zm1.3-25.1c0 1.1.9 2 2 2s2-.9 2-2-.9-2-2-2-2 .9-2 2zm7.5-20.2c1.3 0 2.3-1 2.3-2.3s-1-2.3-2.3-2.3-2.3 1-2.3 2.3c-.1 1.2 1 2.3 2.3 2.3zm7.6-22.2c1.2 0 2.1-.9 2.1-2.1s-.9-2.1-2.1-2.1-2.1.9-2.1 2.1.9 2.1 2.1 2.1zm9.6-25.2c-1 0-1.9.8-1.9 1.9 0 1 .9 1.9 1.9 1.9s1.9-.8 1.9-1.9c0-1-.8-1.9-1.9-1.9zm11.6-16.1c1.1 0 2.1-.9 2.1-2.1 0-1.1-.9-2.1-2.1-2.1-1.1 0-2.1.9-2.1 2.1.1 1.1 1 2.1 2.1 2.1zm11.8-21.1c0 1 .8 1.8 1.8 1.8s1.8-.8 1.8-1.8-.8-1.8-1.8-1.8c-1 .1-1.8.9-1.8 1.8zm17-15.4c1.2 0 2.2-1 2.2-2.2s-1-2.2-2.2-2.2-2.1 1-2.1 2.2c-.1 1.3.9 2.2 2.1 2.2zm16.8-16c1.2 0 2.2-1 2.2-2.2s-1-2.2-2.2-2.2-2.2 1-2.2 2.2 1 2.2 2.2 2.2zm16.2-16.5c0 1.1.9 2.1 2.1 2.1 1.1 0 2.1-.9 2.1-2.1 0-1.1-.9-2.1-2.1-2.1s-2.1.9-2.1 2.1zm19.2-12.6c0 1.3 1.1 2.4 2.4 2.4s2.4-1.1 2.4-2.4-1.1-2.4-2.4-2.4-2.4 1.1-2.4 2.4zm23.1-8.5c1.2 0 2.1-.9 2.1-2.1s-.9-2.1-2.1-2.1-2.1.9-2.1 2.1c0 1.1.9 2.1 2.1 2.1zm21.6-8.5c1.3 0 2.3-1 2.3-2.3s-1-2.3-2.3-2.3-2.3 1-2.3 2.3c-.1 1.3 1 2.3 2.3 2.3zm22.3-6.9c1.1 0 2-.9 2-2s-.9-2-2-2-2 .9-2 2c0 1.2.9 2 2 2zm22.8-4.3c1.1 0 2-.9 2-2s-.9-2-2-2-2 .9-2 2 .9 2 2 2zm23.1-2.2c1.2 0 2.1-.9 2.1-2.1s-.9-2.1-2.1-2.1-2.1.9-2.1 2.1 1 2.1 2.1 2.1zm23.3 0c1.2 0 2.1-.9 2.1-2.1s-.9-2.1-2.1-2.1-2.1.9-2.1 2.1.9 2.1 2.1 2.1zm23.1 2.2c1.1 0 2.1-.9 2.1-2.1 0-1.1-.9-2.1-2.1-2.1-1.1 0-2.1.9-2.1 2.1.1 1.2 1 2.1 2.1 2.1zm22.9 4.3c1.1 0 2-.9 2-2s-.9-2-2-2-2 .9-2 2c0 1.2.8 2 2 2zm22.3 7c1.3 0 2.4-1.1 2.4-2.4s-1-2.4-2.4-2.4-2.4 1-2.4 2.4c0 1.3 1 2.4 2.4 2.4zm21.5 8.4c1.2 0 2.1-1 2.1-2.2s-1-2.2-2.1-2.2c-1.2 0-2.2 1-2.2 2.2.1 1.2 1 2.2 2.2 2.2zm20.7 11c1.4 0 2.5-1.1 2.5-2.5s-1.1-2.5-2.5-2.5-2.5 1.1-2.5 2.5 1.1 2.5 2.5 2.5zm19.6 12.2c1.2 0 2.2-1 2.2-2.2s-1-2.1-2.2-2.1-2.2.9-2.2 2.1 1 2.2 2.2 2.2zm18.2 14.9c1.5 0 2.6-1.2 2.6-2.6s-1.2-2.6-2.6-2.6c-1.5 0-2.6 1.2-2.6 2.6s1.2 2.6 2.6 2.6zm14.2 13.4c0 1.5 1.2 2.7 2.7 2.7s2.7-1.2 2.7-2.7-1.2-2.7-2.7-2.7-2.7 1.2-2.7 2.7zm17.9 19.8c1.3 0 2.3-1 2.3-2.3s-1-2.3-2.3-2.3-2.3 1-2.3 2.3 1 2.3 2.3 2.3zm10.8 16.7c0 1.5 1.2 2.7 2.7 2.7s2.7-1.2 2.7-2.7-1.2-2.7-2.7-2.7-2.7 1.2-2.7 2.7zm14.3 22.6c1.4 0 2.5-1.1 2.5-2.5s-1.1-2.5-2.5-2.5-2.4 1.1-2.4 2.5c-.1 1.4 1 2.5 2.4 2.5zm9.6 21.4c1.5 0 2.8-1.3 2.8-2.8s-1.2-2.8-2.8-2.8c-1.5 0-2.7 1.2-2.7 2.8s1.2 2.8 2.7 2.8zm7.7 21.7c1.4 0 2.4-1.1 2.4-2.5s-1.1-2.5-2.4-2.5c-1.4 0-2.5 1.1-2.5 2.5s1.1 2.5 2.5 2.5zm5.4 22.7c1.5 0 2.6-1.2 2.6-2.6 0-1.5-1.2-2.6-2.6-2.6-1.5 0-2.6 1.2-2.6 2.6 0 1.5 1.2 2.6 2.6 2.6zm3.3 17.7c-1.5 0-2.8 1.2-2.8 2.8 0 1.5 1.3 2.8 2.8 2.8s2.7-1.3 2.7-2.8c.1-1.6-1.1-2.8-2.7-2.8z" fill="url(#SVGID_2_)"></path><g><path d="m437 75c-99.9-100-262-100-362 0s-100 262.1 0 362c100 100 262.1 100 362.1 0 99.9-100 99.9-262.1-.1-362zm-357.8 357.8c-97.7-97.7-97.7-256 0-353.7s256-97.7 353.7 0 97.7 256 0 353.7-256.1 97.7-353.7 0z" fill="url(#SVGID_3_)"></path><path d="m432.9 79.1c-97.7-97.7-256-97.7-353.7 0s-97.7 256 0 353.7 256 97.7 353.7 0c97.6-97.6 97.6-256 0-353.7zm-349.7 349.7c-95.5-95.5-95.4-250.2 0-345.7 95.4-95.4 250.2-95.5 345.7 0 95.4 95.4 95.4 250.2 0 345.7-95.5 95.5-250.3 95.5-345.7 0z" fill="url(#SVGID_4_)"></path></g></g><path d="m323.6 114.1c-17.8-19.4-43.4-31.5-71.7-31.5-20.1 0-39.3 6.1-55.8 17.5-16 11.2-28.2 26.7-35.2 44.8-3.1 8.1-2.9 16.9.6 24.9 2.2 5 5.6 9.3 9.8 12.5 1.7 2.1 48.6 49.1 50.4 50.6-1.5 3.8-2.3 7.9-2.3 12.1 0 10.4 4.9 19.7 12.6 25.6 1.7 2.1 60 60.5 61.8 62-5.1 18.3-21.9 31.8-41.8 31.8-5.5 0-10.7-1-15.6-2.9-1.1-1.2-24.4-24.5-26.5-26.1-6.1-7.8-15.5-12.5-25.7-12.5-5.1 0-10.2 1.2-14.7 3.5-16 8.1-22.4 27.7-14.2 43.7 5.9 11.7 13.7 21.9 22.9 30.4 1.3 1.4 62.4 62.5 98.9 99 55.4-4.8 109.5-28.3 151.8-70.7 39.4-39.4 62.5-88.9 69.4-140.1-43.2-43.2-173.1-173.1-174.7-174.6z" fill="url(#SVGID_5_)"></path><g><path d="m251.9 429.4c-41 0-78.1-22.7-96.7-59.3-8.1-16-1.7-35.6 14.2-43.7 4.6-2.3 9.6-3.5 14.7-3.5 12.3 0 23.4 6.8 29 17.8 7.5 14.7 22.3 23.8 38.8 23.8 23.9 0 43.4-19.5 43.4-43.4s-19.5-43.4-43.4-43.4c-17.9 0-32.5-14.6-32.5-32.5 0-14.3 9.2-26.8 22.8-31 3.1-1 6.4-1.5 9.7-1.5 17.9 0 32.4-14.6 32.4-32.4 0-17.9-14.6-32.4-32.4-32.4-13.3 0-25.5 8.3-30.3 20.7s-17 20.8-30.3 20.8c-4 0-7.9-.7-11.7-2.2-8.1-3.1-14.5-9.2-18-17.2-3.5-7.9-3.7-16.8-.6-24.9 7-18.2 19.2-33.7 35.2-44.8 16.4-11.5 35.7-17.5 55.8-17.5 53.7 0 97.5 43.7 97.5 97.5 0 23-8 44.9-22.7 62.4 21.5 20.5 33.7 48.7 33.7 78.5-.2 59.6-48.8 108.2-108.6 108.2z" fill="url(#SVGID_6_)"></path><path d="m316.8 243c15.8-16.3 25.6-38.5 25.6-63 0-49.9-40.6-90.5-90.5-90.5-18.6 0-36.5 5.6-51.7 16.3-14.9 10.4-26.1 24.8-32.7 41.6-5.1 13.1 1.5 27.9 14.6 33s27.9-1.5 33-14.6c5.8-15.1 20.6-25.2 36.8-25.2 21.8 0 39.4 17.7 39.4 39.4 0 21.8-17.7 39.4-39.4 39.4-2.6 0-5.2.4-7.6 1.1-10.4 3.2-17.9 12.9-17.9 24.4 0 14.1 11.4 25.5 25.5 25.5 27.8 0 50.4 22.6 50.4 50.4s-22.6 50.4-50.4 50.4c-19.1 0-36.3-10.6-45-27.6-6.4-12.6-21.7-17.6-34.3-11.2s-17.6 21.7-11.2 34.3c17.4 34.2 52.1 55.5 90.5 55.5 55.9 0 101.4-45.5 101.4-101.4 0-31.1-14.2-59.1-36.5-77.8z" fill="url(#SVGID_7_)"></path></g></g></svg>