<!-- icon666.com - MILLIONS vector ICONS FREE --><svg id="Layer_2_00000144328338619237587390000009316279045641043644_" enable-background="new 0 0 512 512" viewBox="0 0 512 512" xmlns="http://www.w3.org/2000/svg" xmlns:xlink="http://www.w3.org/1999/xlink"><linearGradient id="_3_00000072997140603283739650000013160512028035163833_" gradientTransform="matrix(1 0 0 -1 0 512.93)" gradientUnits="userSpaceOnUse" x1="126.877" x2="341.881" y1="364.419" y2="149.416"><stop offset="0" stop-color="#fbe150"></stop><stop offset="1" stop-color="#f15318"></stop></linearGradient><g id="Icon"><path id="_3" d="m268.3 133.5c10.1 0 19.6 1.9 28.5 5.8s16.7 9.1 23.3 15.8c6.7 6.7 11.9 14.4 15.8 23.3s5.8 18.4 5.8 28.5c0 9-1.6 17.8-5 26.2-3.3 8.5-8 16.1-14 22.8 6 6.7 10.7 14.3 14 22.8s5 17.2 5 26.2c0 10.1-1.9 19.7-5.8 28.5-3.9 8.9-9.1 16.7-15.8 23.3-6.7 6.7-14.4 11.9-23.3 15.8s-18.4 5.8-28.5 5.8h-98.1v-49.1h98.1c3.4 0 6.6-.6 9.6-1.9 3-1.2 5.5-3 7.8-5.2 2.2-2.2 4-4.8 5.2-7.8s1.9-6.1 1.9-9.6-.6-6.6-1.9-9.6-3-5.5-5.2-7.8c-2.2-2.2-4.8-4-7.8-5.2s-6.2-1.9-9.6-1.9h-66.8v-49.1h66.8c3.4 0 6.6-.6 9.6-1.9 3-1.2 5.5-3 7.8-5.2 2.2-2.2 4-4.8 5.2-7.9s1.9-6.2 1.9-9.7-.6-6.6-1.9-9.6c-1.2-3-3-5.6-5.2-7.8s-4.8-4-7.8-5.2-6.2-1.9-9.6-1.9h-98.1v-49h98.1m0-19.4h-98.1c-11 0-20 8.9-20 20v49.1c0 11.1 9 20 20 20h98.1c1 0 1.5.2 1.8.3.6.2 1 .5 1.4.9s.7.8.9 1.4c.1.3.3.8.3 1.8s-.2 1.6-.4 2c-.3.8-.6 1.1-.9 1.4-.4.4-.8.7-1.4.9-.3.1-.8.3-1.8.3h-66.8c-11 0-20 8.9-20 20v49c0 11.1 9 20 20 20h66.8c1 0 1.5.2 1.8.3.6.2 1 .5 1.4.9s.7.8.9 1.4c.1.3.3.8.3 1.8s-.2 1.5-.3 1.8c-.2.6-.5 1-.9 1.4s-.8.7-1.4.9c-.3.1-.8.3-1.8.3h-98.1c-11 0-20 9-20 20v49.1c0 11 9 20 20 20h98.1c12.9 0 25.2-2.5 36.5-7.5 11.1-4.9 21.1-11.6 29.5-20s15.1-18.3 20-29.5c5-11.4 7.5-23.7 7.5-36.5 0-11.5-2.1-22.7-6.3-33.5-2.1-5.5-4.7-10.7-7.8-15.6 3-4.9 5.6-10.1 7.8-15.6 4.2-10.8 6.3-22 6.3-33.5 0-12.9-2.5-25.1-7.5-36.5-4.9-11.2-11.6-21.1-20-29.5s-18.3-15.1-29.5-20c-11.2-4.8-23.5-7.3-36.4-7.3z" fill="url(#_3_00000072997140603283739650000013160512028035163833_)"></path></g></svg>