<!-- icon666.com - MILLIONS vector ICONS FREE --><svg id="Layer_2_00000128475163265620559040000003420035444309891515_" enable-background="new 0 0 512 512" viewBox="0 0 512 512" xmlns="http://www.w3.org/2000/svg" xmlns:xlink="http://www.w3.org/1999/xlink"><linearGradient id="_7_00000093162651733232726510000008974360681082072971_" gradientTransform="matrix(1 0 0 -1 0 512.93)" gradientUnits="userSpaceOnUse" x1="146.537" x2="341.278" y1="384.079" y2="189.338"><stop offset="0" stop-color="#fbe150"></stop><stop offset="1" stop-color="#f15318"></stop></linearGradient><g id="Icon"><path id="_7" d="m341.8 133.5-83.8 245h-52.5l68.9-196h-104.2v-49.1h171.6m0-19.9h-171.6c-11 0-20 8.9-20 20v49.1c0 11.1 9 20 20 20h76l-59.5 169.4c-2.1 6.1-1.2 12.9 2.6 18.2s9.8 8.4 16.3 8.4h52.4c8.6 0 16.2-5.4 18.9-13.5l83.7-245.1c2.1-6.1 1.1-12.9-2.7-18.1-3.6-5.3-9.7-8.4-16.1-8.4z" fill="url(#_7_00000093162651733232726510000008974360681082072971_)"></path></g></svg>