<!-- icon666.com - MILLIONS vector ICONS FREE --><svg id="Layer_2_00000044140958041278001150000014402335045649410743_" enable-background="new 0 0 512 512" viewBox="0 0 512 512" xmlns="http://www.w3.org/2000/svg" xmlns:xlink="http://www.w3.org/1999/xlink"><linearGradient id="_5_00000042717211832985612430000006859638055832247970_" gradientTransform="matrix(1 0 0 -1 0 512.93)" gradientUnits="userSpaceOnUse" x1="141.336" x2="350.971" y1="366.572" y2="156.927"><stop offset="0" stop-color="#fbe150"></stop><stop offset="1" stop-color="#f15318"></stop></linearGradient><g id="Icon"><path id="_5" d="m333.8 133.5v49.1h-107.2l-4.4 42h44.8c10.1 0 19.8 1.8 29.1 5.3s17.5 8.6 24.5 15.3c7.1 6.7 12.7 14.8 16.9 24.3s6.3 20.2 6.3 32-2.1 22.7-6.3 32.3-9.9 17.7-16.9 24.3-15.2 11.7-24.5 15.2-19 5.3-29.1 5.3h-98.8v-49.1h98.8c3.3 0 6.6-.5 10-1.5s6.4-2.7 9.1-5 4.8-5.2 6.5-8.7 2.5-7.8 2.5-12.8c0-4.6-.8-8.6-2.5-12-1.6-3.5-3.8-6.4-6.5-8.7s-5.7-4.1-9.1-5.3-6.7-1.8-10-1.8h-98.8l14.4-140.1h151.2m0-20.1h-151.3c-10.3 0-18.9 7.8-19.9 18l-14.4 140.1c-.6 5.6 1.3 11.2 5 15.4 3.8 4.2 9.2 6.6 14.9 6.6h98.8c1 0 2.1.2 3.3.6 1 .4 1.8.8 2.6 1.5.6.5 1.1 1.2 1.6 2.2.2.4.5 1.4.5 3.4 0 2.9-.5 4.1-.6 4.4-.4.9-.9 1.6-1.3 2-.6.5-1.2.8-1.9 1.1-1.5.4-2.8.7-4.2.7h-98.8c-11.1 0-20 8.9-20 20v49.1c0 11 8.9 20 20 20h98.8c12.5 0 24.7-2.2 36.2-6.6 11.7-4.4 22.1-10.9 31.1-19.3s16.3-18.8 21.6-30.8c5.3-12.1 8-25.7 8-40.4s-2.7-28.1-8-40.1c-5.3-11.9-12.5-22.2-21.5-30.7s-19.4-15-31.1-19.4c-11.5-4.4-23.7-6.6-36.2-6.6h-22.6l.2-2h89.2c11 0 20-8.9 20-20v-49.1c0-11.2-9-20.1-20-20.1z" fill="url(#_5_00000042717211832985612430000006859638055832247970_)"></path></g></svg>