<!-- icon666.com - MILLIONS vector ICONS FREE --><svg id="Layer_2_00000035530784986235915020000014115006693267511450_" enable-background="new 0 0 512 512" viewBox="0 0 512 512" xmlns="http://www.w3.org/2000/svg" xmlns:xlink="http://www.w3.org/1999/xlink"><linearGradient id="_2_00000098209518887820773220000018106218518284786310_" gradientTransform="matrix(1 0 0 -1 0 512.93)" gradientUnits="userSpaceOnUse" x1="132.184" x2="360.172" y1="359.127" y2="131.139"><stop offset="0" stop-color="#fbe150"></stop><stop offset="1" stop-color="#f15318"></stop></linearGradient><g id="Icon"><path id="_2" d="m268.3 133.5c10.1 0 19.6 1.9 28.5 5.8s16.7 9.1 23.3 15.8c6.7 6.7 11.9 14.4 15.8 23.3s5.8 18.4 5.8 28.5-1.9 19.7-5.8 28.6-9.1 16.8-15.8 23.4c-6.7 6.7-14.4 11.9-23.3 15.8s-18.4 5.8-28.5 5.8h-24.6c-3.4 0-6.6.6-9.6 1.9-3 1.2-5.6 3-7.8 5.2s-4 4.8-5.2 7.8-1.9 6.1-1.9 9.6v24.4h115.9v49h-164.9v-73.4c0-10.1 1.9-19.7 5.8-28.6s9.1-16.8 15.8-23.4c6.7-6.7 14.4-11.9 23.3-15.7s18.4-5.7 28.5-5.7h24.6c3.4 0 6.6-.6 9.6-1.9 3-1.2 5.5-3 7.8-5.2 2.2-2.2 4-4.8 5.2-7.9s1.9-6.2 1.9-9.7-.6-6.6-1.9-9.6c-1.2-3-3-5.6-5.2-7.8s-4.8-4-7.8-5.2-6.2-1.9-9.6-1.9h-87.5v-49.1h87.6m0-19.8h-87.5c-11.1 0-20 8.9-20 20v49.1c0 11.1 8.9 20 20 20h87.5c1 0 1.5.2 1.8.3.6.2 1 .5 1.4.9s.7.8.9 1.4c.1.3.3.8.3 1.8s-.2 1.6-.4 2c-.3.8-.6 1.1-.9 1.4-.4.4-.8.7-1.4.9-.3.1-.8.3-1.8.3h-24.6c-12.8 0-25.1 2.5-36.4 7.4-11.2 4.8-21.1 11.5-29.6 20-8.4 8.4-15.2 18.4-20 29.6-4.9 11.4-7.5 23.7-7.5 36.6v73.5c0 11 9 20 20 20h164.9c11 0 20-9 20-20v-49c0-11.1-9-20-20-20h-95.9v-4.4c0-1 .2-1.5.3-1.8.2-.6.5-1 .9-1.4s.8-.7 1.4-.9c.3-.1.8-.3 1.8-.3h24.6c12.9 0 25.2-2.5 36.5-7.5 11.1-4.9 21.1-11.6 29.5-20s15.2-18.4 20-29.6c4.9-11.4 7.5-23.7 7.5-36.6 0-12.8-2.5-25.2-7.5-36.5-4.9-11.2-11.6-21.1-20-29.5s-18.3-15.1-29.5-20c-11.1-5.2-23.4-7.7-36.3-7.7z" fill="url(#_2_00000098209518887820773220000018106218518284786310_)"></path></g></svg>