<!-- icon666.com - MILLIONS vector ICONS FREE --><svg id="Layer_2_00000091008918513937639210000018076465332957460923_" enable-background="new 0 0 512 512" viewBox="0 0 512 512" xmlns="http://www.w3.org/2000/svg" xmlns:xlink="http://www.w3.org/1999/xlink"><linearGradient id="_4_00000102539569030762259180000012361842530890941886_" gradientTransform="matrix(1 0 0 -1 0 512.93)" gradientUnits="userSpaceOnUse" x1="145.254" x2="368.196" y1="367.676" y2="144.734"><stop offset="0" stop-color="#fbe150"></stop><stop offset="1" stop-color="#f15318"></stop></linearGradient><g id="Icon"><path id="_4" d="m234.4 133.5-21.4 147.1h67.5v-122.5h49.1v122.5h24.4v48.9h-24.4v49.1h-49.1v-49.1h-122.5l27.3-196zm0-20h-49.1c-10 0-18.4 7.3-19.8 17.2l-27.3 196c-.8 5.7.9 11.5 4.7 15.9s9.3 6.9 15.1 6.9h102.5v29c0 11 9 20 20 20h49.1c11 0 20-9 20-20v-29h4.4c11 0 20-9 20-20v-48.9c0-11.1-9-20-20-20h-4.4v-102.5c0-11.1-9-20-20-20h-49.1c-11 0-20 8.9-20 20v102.5h-24.4l18-123.8c.2-1.1.3-2.2.3-3.3 0-11.1-9-20-20-20z" fill="url(#_4_00000102539569030762259180000012361842530890941886_)"></path></g></svg>