<!-- icon666.com - MILLIONS vector ICONS FREE --><svg id="Layer_2_00000084491449758601914600000012257658434276231078_" enable-background="new 0 0 512 512" viewBox="0 0 512 512" xmlns="http://www.w3.org/2000/svg" xmlns:xlink="http://www.w3.org/1999/xlink"><linearGradient id="_8_00000144299749402815358330000006050118419621399487_" gradientTransform="matrix(1 0 0 -1 0 512.92)" gradientUnits="userSpaceOnUse" x1="156.035" x2="356.138" y1="352.273" y2="152.171"><stop offset="0" stop-color="#fbe150"></stop><stop offset="1" stop-color="#f15318"></stop></linearGradient><g id="Icon"><path id="_8" d="m256 126.5c11.3 0 21.9 1.8 31.8 5.5 9.9 3.6 18.6 8.6 26.1 14.9s13.3 13.7 17.6 22c4.3 8.4 6.4 17.3 6.4 26.9 0 4.7-.5 9.4-1.6 14.1s-2.6 9.3-4.5 13.8-4.3 8.8-7.1 12.7c-2.8 4-6 7.6-9.5 10.8 5.6 3.2 10.6 7 15.2 11.4s8.4 9.3 11.6 14.7 5.6 11 7.3 17.1c1.7 6 2.6 12.2 2.6 18.6 0 11.1-2.5 21.2-7.5 30.6-5 9.3-11.9 17.4-20.6 24.2s-18.9 12.1-30.5 15.9-24 5.7-37.3 5.7c-13.2 0-25.6-1.9-37.3-5.7-11.6-3.8-21.8-9.1-30.5-15.9s-15.6-14.8-20.6-24.2c-5-9.3-7.5-19.5-7.5-30.6 0-6.4.9-12.6 2.6-18.7s4.2-11.8 7.4-17.2c3.2-5.3 7.1-10.3 11.7-14.8s9.7-8.3 15.4-11.5c-3.5-3.1-6.7-6.6-9.5-10.6s-5.2-8.2-7.2-12.6-3.5-9-4.5-13.8-1.5-9.4-1.5-14.1c0-9.6 2.1-18.5 6.4-26.9s10.1-15.7 17.5-22 16.1-11.3 26-14.9 20.4-5.4 31.6-5.4m.3 102.8c4.6 0 8.9-.7 13-2.2s7.7-3.5 10.7-6 5.4-5.5 7.2-8.9 2.6-7.1 2.6-11.1-.9-7.7-2.6-11.2-4.2-6.5-7.2-9.1-6.6-4.7-10.7-6.1c-4.1-1.5-8.4-2.2-13-2.2s-9.1.7-13.2 2.2-7.7 3.5-10.7 6.1-5.4 5.7-7.2 9.1c-1.8 3.5-2.7 7.2-2.7 11.2s.9 7.7 2.7 11.1 4.2 6.4 7.2 8.9 6.6 4.5 10.7 6c4.2 1.5 8.6 2.2 13.2 2.2m-.3 115.9c6.5 0 12.6-.9 18.4-2.8s10.8-4.5 15-7.8c4.3-3.3 7.6-7.2 10.1-11.8s3.7-9.6 3.7-15c0-5.5-1.2-10.6-3.7-15.3s-5.8-8.9-10.1-12.4-9.3-6.3-15-8.4-11.9-3.1-18.4-3.1-12.6 1-18.3 3.1-10.7 4.8-14.9 8.4c-4.3 3.5-7.6 7.7-10.1 12.4-2.4 4.7-3.7 9.8-3.7 15.3s1.2 10.5 3.7 15 5.8 8.5 10.1 11.8 9.3 5.9 14.9 7.8c5.7 1.9 11.8 2.8 18.3 2.8m0-238.7c-13.5 0-26.4 2.2-38.5 6.7s-22.9 10.7-32.1 18.5c-9.4 8-16.9 17.5-22.3 28.2-5.7 11.2-8.6 23.3-8.6 36 0 6.1.7 12.2 2 18.3s3.3 12 5.8 17.7c1.8 4 3.9 7.9 6.2 11.6-.2.2-.5.5-.7.7-5.7 5.6-10.7 11.9-14.8 18.6-4.2 6.9-7.4 14.3-9.6 22.1s-3.3 15.9-3.3 24.1c0 14.3 3.3 27.8 9.9 40.1 6.3 11.8 15 22 25.9 30.5 10.5 8.2 22.8 14.6 36.5 19.1 13.6 4.5 28.2 6.7 43.5 6.7s29.9-2.3 43.5-6.7c13.8-4.5 26-10.9 36.5-19.1 10.9-8.5 19.6-18.7 25.9-30.5 6.6-12.2 9.9-25.7 9.9-40 0-8.2-1.1-16.3-3.3-24.1-2.2-7.7-5.3-15-9.4-21.9-4.1-6.8-9.1-13.2-14.8-18.8-.2-.2-.4-.4-.6-.6 2.4-3.9 4.5-8 6.3-12.2 2.4-5.6 4.3-11.4 5.7-17.3 1.4-6.2 2.1-12.4 2.1-18.6 0-12.7-2.9-24.8-8.6-36-5.5-10.7-13-20.2-22.5-28.2-9.2-7.8-20-14-32.1-18.5-11.9-4.2-24.9-6.4-38.5-6.4zm.3 102.8c-2.4 0-4.4-.3-6.4-1-1.9-.7-3.5-1.5-4.7-2.5-1-.8-1.7-1.7-2.2-2.7-.2-.4-.4-.9-.4-1.9 0-.8.1-1.5.5-2.1.6-1.2 1.4-2.2 2.5-3.1 1.2-1 2.6-1.8 4.4-2.5 1.9-.7 4-1 6.4-1s4.3.3 6.2 1c1.8.6 3.2 1.4 4.4 2.4 1.1.9 1.9 1.9 2.4 3.1.3.7.5 1.3.5 2.1 0 1-.2 1.5-.4 1.9-.5 1-1.2 1.9-2.2 2.7-1.2 1-2.8 1.9-4.7 2.6-2 .7-4 1.1-6.3 1zm-.3 115.9c-4.3 0-8.4-.6-12-1.8-3.5-1.2-6.5-2.7-9-4.6-2.1-1.6-3.6-3.4-4.7-5.4-.9-1.6-1.3-3.4-1.3-5.6 0-2.3.4-4.2 1.4-6.1 1.2-2.3 2.9-4.4 5.1-6.2 2.5-2.1 5.4-3.7 9-5 3.5-1.3 7.3-1.9 11.5-1.9s8 .6 11.7 1.9c3.5 1.3 6.6 2.9 9 5 2.2 1.8 3.9 3.8 5.1 6.2 1 1.9 1.4 3.8 1.4 6.1s-.4 3.9-1.3 5.6c-1.1 2.1-2.7 3.9-4.7 5.4-2.4 1.9-5.5 3.4-9 4.6-3.7 1.2-7.8 1.8-12.2 1.8z" fill="url(#_8_00000144299749402815358330000006050118419621399487_)"></path></g></svg>