<!-- icon666.com - MILLIONS vector ICONS FREE --><svg id="Layer_2_00000099623580167122489320000017737362827224990897_" enable-background="new 0 0 512 512" viewBox="0 0 512 512" xmlns="http://www.w3.org/2000/svg" xmlns:xlink="http://www.w3.org/1999/xlink"><linearGradient id="_14_00000029757311992051768140000005642405012165405103_" gradientTransform="matrix(1 0 0 -1 0 512.93)" gradientUnits="userSpaceOnUse" x1="98.431" x2="389.054" y1="402.199" y2="111.576"><stop offset="0" stop-color="#fbe150"></stop><stop offset="1" stop-color="#f15318"></stop></linearGradient><g id="Icon"><path id="_14" d="m288.4 133.5-21.4 147.1h67.5v-122.5h49v122.5h24.5v48.9h-24.4v49.1h-49v-49.1h-122.6l27.3-196zm-110.9 0v245.1h-49.1v-196h-24.4v-49.1zm110.9-20h-49.1c-10 0-18.4 7.3-19.8 17.2l-22.1 158.1v-155.3c0-11.1-8.9-20-20-20h-73.4c-11.1 0-20 8.9-20 20v49.1c0 11.1 8.9 20 20 20h4.4v176c0 11 8.9 20 20 20h49.1c11.1 0 20-9 20-20v-35.3c3.8 4 9 6.2 14.5 6.2h102.5v29.1c0 11 8.9 20 20 20h49c11 0 20-9 20-20v-29.1h4.4c11 0 20-8.9 20-20v-48.9c0-11-9-20-20-20h-4.4v-102.5c0-11.1-9-20-20-20h-49.1c-11.1 0-20 8.9-20 20v102.5h-24.4l18-123.8c.2-1.1.3-2.2.3-3.3.1-11.1-8.9-20-19.9-20z" fill="url(#_14_00000029757311992051768140000005642405012165405103_)"></path></g></svg>