<!-- icon666.com - MILLIONS vector ICONS FREE --><svg id="Layer_2_00000175317936662494415870000006739947450276967082_" enable-background="new 0 0 512 512" viewBox="0 0 512 512" xmlns="http://www.w3.org/2000/svg" xmlns:xlink="http://www.w3.org/1999/xlink"><linearGradient id="_10_00000150814857255388574010000000429452090108609210_" gradientTransform="matrix(1 0 0 -1 0 512.1)" gradientUnits="userSpaceOnUse" x1="96.224" x2="374.634" y1="401.291" y2="122.881"><stop offset="0" stop-color="#fbe150"></stop><stop offset="1" stop-color="#f15318"></stop></linearGradient><g id="Icon"><path id="_10" d="m312.1 130.1c13.6 0 26.3 2.2 38.2 6.8 11.9 4.5 22.3 11.8 31.2 21.8s15.9 23 21 39c5.1 15.9 7.7 35.4 7.7 58.4s-2.6 42.9-7.7 59-12.1 29-21 39c-8.9 9.9-19.3 17.1-31.2 21.5s-24.6 6.6-38.2 6.6-26.3-2.2-38.2-6.8-22.3-11.7-31.1-21.7-15.8-23-20.9-39-7.7-35.5-7.7-58.5 2.6-42.9 7.7-58.9 12.1-29 20.9-38.9 19.2-17.1 31.1-21.5 24.6-6.8 38.2-6.8m0 206.4c8.1 0 15.3-1.6 21.7-4.9 6.4-3.2 11.8-8.2 16.1-14.8 4.4-6.6 7.8-15 10.1-25 2.3-10.1 3.5-22 3.5-35.8 0-27.2-4.5-47.4-13.6-60.7-9.1-13.2-21.7-19.8-37.9-19.8s-28.5 6.5-37.4 19.6-13.3 33.4-13.3 60.8 4.4 47.5 13.3 60.7c8.9 13.3 21.4 19.9 37.5 19.9m-136.8-203v245.1h-49v-196h-24.4v-49.1zm136.8-23.4c-15.9 0-31.1 2.7-45.2 7.9-14.9 5.6-28.1 14.7-39 27-10.7 12-19.1 27.5-25.1 46.1-3.6 11.2-6.1 24-7.4 38.2v-95.8c0-11-8.9-20-20-20h-73.5c-11.1 0-20 9-20 20v49.1c0 11.1 8.9 20 20 20h4.4v176c0 11 8.9 20 20 20h49.1c11.1 0 20-9 20-20v-96c1.3 14.1 3.8 26.9 7.4 38.1 5.9 18.6 14.4 34.1 25 46.1 11 12.4 24.1 21.5 39 27.2 14.1 5.3 29.4 8 45.3 8s31-2.6 45.1-7.8c14.9-5.5 28.1-14.5 39.2-26.9 10.7-12 19.2-27.5 25.2-46.2 5.7-18 8.6-39.8 8.6-65s-2.9-46.7-8.6-64.6c-6-18.5-14.4-34-25.1-46.1-11-12.4-24.2-21.6-39.1-27.2-14.2-5.4-29.4-8.1-45.3-8.1zm0 206.4c-9.4 0-15.6-3.3-20.8-11-4.5-6.7-9.9-20.8-9.9-49.5s5.4-43 9.9-49.6c5.2-7.6 11.4-10.9 20.9-10.9s16 3.3 21.4 11.1c4.6 6.7 10.1 20.7 10.1 49.4 0 12.2-1 22.7-3 31.3-1.8 7.7-4.2 13.9-7.3 18.5-2.5 3.7-5.3 6.3-8.6 8-3.7 1.8-7.8 2.7-12.7 2.7z" fill="url(#_10_00000150814857255388574010000000429452090108609210_)"></path></g></svg>