<!-- icon666.com - MILLIONS vector ICONS FREE --><svg id="Layer_2_00000016754013400996959880000002617208319743041709_" enable-background="new 0 0 512 512" viewBox="0 0 512 512" xmlns="http://www.w3.org/2000/svg" xmlns:xlink="http://www.w3.org/1999/xlink"><linearGradient id="_9_00000133499438445300703340000000583846961411000748_" gradientTransform="matrix(1 0 0 -1 0 511.92)" gradientUnits="userSpaceOnUse" x1="158.405" x2="346.62" y1="352.615" y2="164.4"><stop offset="0" stop-color="#fbe150"></stop><stop offset="1" stop-color="#f15318"></stop></linearGradient><g id="Icon"><path id="_9" d="m254.1 130c13.4 0 26.1 2.6 37.9 7.7s22.1 12.1 30.9 20.9 15.7 19.1 20.8 30.9 7.6 24.3 7.6 37.5c0 15.7-1.6 31.1-4.7 46.1s-7.7 29.1-13.6 42.5-13.2 25.6-21.7 36.9-18.2 21.1-29 29.6h-66.3c6.9-4.4 13.7-9.4 20.2-14.9s12.7-11.3 18.5-17.6c5.9-6.3 11.3-12.9 16.3-19.8 5-7 9.5-14.1 13.3-21.5-5 3.3-10.4 6.1-16.1 8.5-5.7 2.3-11.6 3.5-17.6 3.5-13.9 0-26.4-2.3-37.4-6.9-11.1-4.6-20.5-11.1-28.3-19.3-7.8-8.3-13.8-18.1-17.9-29.5-4.2-11.4-6.2-23.9-6.2-37.4 0-13.6 2.4-25.7 7.1-37.5s11.2-22.1 19.6-30.9c8.3-8.8 18.2-15.8 29.6-20.9 11.3-5.4 23.7-7.9 37-7.9m0 144.5c6.7 0 12.8-1.2 18.4-3.8 5.5-2.5 10.2-5.9 14.1-10.2s6.9-9.4 9-15.1 3.2-11.9 3.2-18.4-1.1-12.3-3.2-18.1c-2.2-5.8-5.2-10.9-9.1-15.4-3.9-4.4-8.6-8-14.1-10.6s-11.5-3.9-18.1-3.9-12.8 1.3-18.2 3.8c-5.4 2.6-10.1 6-13.9 10.3-3.9 4.3-6.8 9.4-8.9 15.2s-3.1 12-3.1 18.6 1 12.6 3.1 18.4c2 5.8 5 10.8 8.9 15.1s8.5 7.8 13.9 10.2c5.2 2.7 11.3 3.9 18 3.9m0-164.5c-16.1 0-31.4 3.2-45.3 9.4-13.7 6.2-25.8 14.8-35.9 25.5-10 10.6-17.9 23.1-23.6 37.2s-8.5 29.2-8.5 45 2.5 30.8 7.4 44.3c5.1 13.9 12.5 26.1 22.2 36.4s21.5 18.4 35.1 24c9.6 4 20 6.6 31.1 7.8-4.3 4.4-8.8 8.5-13.4 12.4-5.8 4.9-11.9 9.4-18.1 13.3-7.5 4.8-10.9 13.9-8.4 22.5 2.5 8.5 10.3 14.4 19.2 14.4h66.1c4.4 0 8.8-1.5 12.3-4.2 12.1-9.5 23.1-20.6 32.7-33.3 9.4-12.4 17.5-26.2 24-40.9 6.5-14.6 11.5-30.2 14.9-46.5s5.1-33.1 5.1-50.1c0-15.9-3.1-31.2-9.2-45.4-6-14.1-14.4-26.6-24.9-37.1-10.5-10.6-23-19.1-37.1-25.2-14.1-6.4-29.5-9.5-45.7-9.5zm0 144.5c-3.8 0-7-.6-9.8-1.9-2.9-1.4-5.4-3.1-7.4-5.4-2.1-2.4-3.8-5.2-5-8.5-1.3-3.6-1.9-7.4-1.9-11.7s.6-8.3 1.9-12c1.2-3.3 2.8-6.1 4.9-8.5 2.1-2.3 4.6-4.2 7.6-5.6 2.7-1.3 5.9-1.9 9.6-1.9s6.7.6 9.5 2c3.1 1.5 5.6 3.4 7.8 5.8 2.3 2.6 4.1 5.6 5.4 9.1 1.3 3.6 2 7.2 2 11.1 0 4.2-.6 7.9-1.9 11.5-1.2 3.4-2.9 6.2-5.1 8.7-2 2.3-4.5 4-7.5 5.4-2.9 1.3-6.2 1.9-10.1 1.9z" fill="url(#_9_00000133499438445300703340000000583846961411000748_)"></path></g></svg>