<!-- icon666.com - MILLIONS vector ICONS FREE --><svg id="Layer_2_00000165198055547895053620000004955827360127280536_" enable-background="new 0 0 512 512" viewBox="0 0 512 512" xmlns="http://www.w3.org/2000/svg" xmlns:xlink="http://www.w3.org/1999/xlink"><linearGradient id="_6_00000168822201091165206590000011561356820283910314_" gradientTransform="matrix(1 0 0 -1 0 511.92)" gradientUnits="userSpaceOnUse" x1="165.26" x2="353.564" y1="347.489" y2="159.196"><stop offset="0" stop-color="#fbe150"></stop><stop offset="1" stop-color="#f15318"></stop></linearGradient><g id="Icon"><path id="_6" d="m295.8 130c-6.8 4.4-13.5 9.4-20 14.9s-12.7 11.3-18.5 17.6c-5.9 6.3-11.3 12.9-16.3 19.8-5 7-9.5 14.2-13.3 21.7 4.9-3.3 10.2-6.1 16-8.5 5.8-2.3 11.7-3.5 17.7-3.5 13.8 0 26.2 2.3 37.3 6.9s20.5 11.1 28.3 19.3c7.8 8.3 13.7 18.1 17.9 29.5s6.3 23.9 6.3 37.4c0 13.6-2.4 25.7-7.1 37.4s-11.2 22-19.6 30.9c-8.3 8.8-18.2 15.8-29.6 20.9s-23.9 7.7-37.2 7.7-25.9-2.6-37.7-7.7-22.1-12.1-30.8-20.9c-8.8-8.8-15.7-19.1-20.8-30.9-5.1-11.7-7.6-24.2-7.6-37.4 0-15.7 1.5-31.1 4.6-46.1s7.6-29.2 13.5-42.6 13.2-25.7 21.7-37 18.2-21.1 29-29.6zm-38.1 203c6.7 0 12.8-1.2 18.3-3.8 5.5-2.5 10.1-6 14-10.3 3.9-4.4 6.9-9.5 9-15.3s3.2-12 3.2-18.5-1-12.6-3.2-18.4c-2.1-5.8-5.1-10.8-9-15.2s-8.5-7.8-14-10.3-11.6-3.8-18.3-3.8-12.8 1.3-18.3 3.8-10.1 6-13.9 10.3c-3.8 4.4-6.8 9.5-8.8 15.2-2.1 5.8-3.1 11.9-3.1 18.4s1.1 12.3 3.2 18c2.1 5.8 5.1 10.9 9 15.3s8.5 8 13.9 10.6 11.4 4 18 4m38.1-223h-66.1c-4.4 0-8.8 1.5-12.3 4.2-12.1 9.5-23.2 20.6-32.7 33.3-9.4 12.5-17.5 26.2-24.1 41-6.5 14.6-11.4 30.3-14.8 46.6-3.3 16.2-5 33.1-5 50.1 0 15.9 3.1 31.2 9.2 45.4 6 14 14.4 26.4 24.9 37s23 19.1 37.1 25.2c14.3 6.2 29.6 9.3 45.7 9.3s31.4-3.2 45.3-9.4c13.8-6.2 25.9-14.8 36-25.5 10-10.6 17.9-23.1 23.6-37.1 5.7-14.1 8.5-29.2 8.5-44.9s-2.5-30.8-7.6-44.4c-5.1-13.9-12.6-26-22.1-36.2-9.7-10.3-21.5-18.4-35.2-24.1-9.6-4-20.1-6.6-31.2-7.7 4.3-4.4 8.9-8.6 13.6-12.6 5.8-4.8 11.7-9.3 17.7-13.2.9-.6 1.7-1.2 2.5-1.9s1.5-1.4 2.2-2.2c2.9-3.5 4.7-7.9 4.7-12.8.2-11.2-8.8-20.1-19.9-20.1zm-38.1 203c-3.6 0-6.6-.6-9.3-1.9-3-1.4-5.5-3.3-7.6-5.7-2.3-2.6-4-5.6-5.3-9-1.3-3.6-1.9-7.2-1.9-11.1 0-4.2.6-8 1.9-11.7 1.2-3.4 2.9-6.3 5.1-8.8 1.9-2.2 4.3-4 7.2-5.3s6.1-1.9 10-1.9 7.1.6 10 1.9 5.3 3.1 7.4 5.4c2.2 2.5 3.9 5.4 5.2 8.9 1.3 3.6 1.9 7.3 1.9 11.5s-.6 8-2 11.6c-1.3 3.5-2.9 6.4-5.2 8.9-2 2.3-4.4 4.1-7.4 5.4-2.9 1.1-6.1 1.8-10 1.8z" fill="url(#_6_00000168822201091165206590000011561356820283910314_)"></path></g></svg>