<!-- icon666.com - MILLIONS vector ICONS FREE --><svg id="Layer_2_00000125597767559008807120000001899123026094843274_" enable-background="new 0 0 512 512" viewBox="0 0 512 512" xmlns="http://www.w3.org/2000/svg" xmlns:xlink="http://www.w3.org/1999/xlink"><linearGradient id="_12_00000051362862834284853260000006750616342507892612_" gradientTransform="matrix(1 0 0 -1 0 512.93)" gradientUnits="userSpaceOnUse" x1="104.757" x2="394.524" y1="398.784" y2="109.017"><stop offset="0" stop-color="#fbe150"></stop><stop offset="1" stop-color="#f15318"></stop></linearGradient><g id="Icon"><path id="_12" d="m324.8 133.5c10.1 0 19.6 1.9 28.5 5.8s16.7 9.1 23.3 15.8c6.7 6.7 11.9 14.4 15.8 23.3s5.8 18.4 5.8 28.5-1.9 19.7-5.8 28.6-9.1 16.8-15.8 23.4c-6.7 6.7-14.4 11.9-23.3 15.8s-18.4 5.8-28.5 5.8h-24.6c-3.4 0-6.6.6-9.6 1.9s-5.6 3-7.8 5.2-4 4.8-5.2 7.8c-1.3 3-1.9 6.1-1.9 9.6v24.4h115.9v49h-164.9v-73.4c0-10.1 1.9-19.7 5.8-28.6s9.1-16.8 15.8-23.4c6.7-6.7 14.4-11.9 23.3-15.7s18.4-5.7 28.5-5.7h24.6c3.4 0 6.6-.6 9.6-1.9 3-1.2 5.6-3 7.8-5.2s4-4.8 5.2-7.9 1.9-6.2 1.9-9.7-.6-6.6-1.9-9.6-3-5.6-5.2-7.8-4.8-4-7.8-5.2-6.1-1.9-9.6-1.9h-87.5v-49.1h87.6m-137.6.2v245.1h-49v-196h-24.4v-49.1zm137.6-20h-87.5c-11.1 0-20 8.9-20 20v49.1c0 11.1 8.9 20 20 20h87.5c1 0 1.5.2 1.8.3.6.2 1 .5 1.4.9s.7.8 1 1.4c.1.3.3.8.3 1.8s-.2 1.6-.3 2c-.3.8-.6 1.1-.9 1.4-.4.4-.8.7-1.4.9-.3.1-.8.3-1.8.3h-24.6c-12.8 0-25.1 2.5-36.4 7.3-11.2 4.8-21.1 11.5-29.6 20s-15.2 18.4-20 29.6c-3.6 8.4-6 17.3-6.9 26.5v-161.5c0-11.1-9-20-20-20h-73.5c-11.1 0-20 8.9-20 20v49.1c0 11.1 8.9 20 20 20h4.4v176c0 11 8.9 20 20 20h49.1c9.9 0 18.2-7.3 19.7-16.8 1.5 9.5 9.8 16.8 19.7 16.8h164.9c11 0 20-9 20-20v-49.1c0-11-9-20-20-20h-95.9v-4.5c0-1 .2-1.5.3-1.8.2-.6.5-1 .9-1.4s.8-.7 1.4-.9c.3-.1.8-.3 1.8-.3h24.6c12.9 0 25.1-2.5 36.5-7.5 11.1-4.9 21.1-11.6 29.5-20s15.2-18.4 20-29.6c5-11.4 7.5-23.7 7.5-36.6 0-12.8-2.5-25.1-7.5-36.5-4.9-11.2-11.6-21.1-20-29.5s-18.3-15.1-29.5-20c-11.3-4.9-23.6-7.4-36.5-7.4z" fill="url(#_12_00000051362862834284853260000006750616342507892612_)"></path></g></svg>